<svg width="46" height="46" viewBox="0 0 46 46" fill="none" xmlns="http://www.w3.org/2000/svg">
    <path
        d="M22.9997 0C28.4213 0 33.4047 1.87633 37.3365 5.0145C38.2795 5.76733 37.9802 7.212 36.854 7.64517L31.3832 9.74983C30.9083 9.9325 30.3785 9.88333 29.9272 9.6485C27.8537 8.56967 25.4985 7.95733 22.9997 7.95733C14.6922 7.9575 7.9575 14.6923 7.95733 22.9997C7.95733 31.3072 14.6922 38.0418 22.9997 38.042C31.3072 38.042 38.0418 31.3073 38.0418 22.9997C38.0418 20.5007 37.4298 18.1457 36.3508 16.0722C36.116 15.6207 36.0667 15.091 36.2495 14.616L38.3542 9.14517C38.7873 8.019 40.232 7.71967 40.9847 8.66267C44.1232 12.5943 45.9992 17.5778 45.9993 22.9997C45.9993 35.7022 35.7022 45.9993 22.9997 45.9993C10.2972 45.9992 0 35.7022 0 22.9997C0.000166667 10.2973 10.2973 0.000166667 22.9997 0Z"
        fill="white" />
    <path
        d="M23 31C27.4183 31 31 27.4183 31 23C31 18.5817 27.4183 15 23 15C18.5817 15 15 18.5817 15 23C15 27.4183 18.5817 31 23 31Z"
        fill="white" />
</svg>