<svg xmlns="http://www.w3.org/2000/svg" width="50" height="50" viewBox="0 0 50 50" fill="none">
  <g clip-path="url(#clip0_28667_1797)">
    <path
      d="M20.2188 14.3652L11.9947 1.04582C11.6806 0.536904 11.1861 0.18478 10.6025 0.0541025C10.0187 -0.0765748 9.42129 0.0313122 8.9203 0.35781C8.4192 0.68421 8.07901 1.18706 7.96252 1.77374C7.84602 2.36032 7.96829 2.95492 8.30672 3.44799L16.954 16.0466C17.0959 16.2534 17.3255 16.3652 17.5595 16.3652C17.695 16.3652 17.8322 16.3276 17.9545 16.2492C18.2847 16.0378 18.7074 15.9971 19.0706 16.1396C19.2781 16.2211 19.5113 16.2038 19.7046 16.0927C19.8978 15.9815 20.03 15.7885 20.0638 15.5681C20.0874 15.4141 20.1414 15.2656 20.2244 15.1267C20.3648 14.8917 20.3626 14.5982 20.2188 14.3652Z"
      fill="white"
    />
    <path
      d="M14.8099 18.7072L4.15058 6.69907C3.75356 6.25178 3.20591 5.98984 2.60857 5.96147C2.01084 5.9335 1.44118 6.14223 1.00357 6.54991C0.566052 6.95759 0.317413 7.5115 0.303622 8.10943C0.289732 8.70726 0.512451 9.27203 0.930599 9.69957L11.0218 20.0167C11.1601 20.1581 11.3493 20.2374 11.5462 20.2374C11.5564 20.2374 11.5667 20.2372 11.577 20.2368C11.7849 20.2281 11.9793 20.1314 12.1118 19.971C12.3483 19.6847 12.6955 19.5206 13.0644 19.5206C13.3371 19.5206 13.5966 19.609 13.8148 19.7765C14.1149 20.0066 14.5407 19.971 14.7982 19.6942C15.0559 19.4173 15.0609 18.9901 14.8099 18.7072Z"
      fill="white"
    />
    <path
      d="M46.5986 21.1939C46.4335 20.0806 45.5871 19.1862 44.4984 18.9497C44.1207 17.8976 43.1131 17.1602 41.9536 17.1602C41.7887 17.1602 41.6244 17.1754 41.4631 17.2052C41.0476 16.3725 40.2162 15.7897 39.2603 15.712C38.9427 14.5719 37.895 13.7329 36.655 13.7329C36.2297 13.7329 35.8208 13.8298 35.4523 14.0134C34.9469 13.4183 34.1947 13.054 33.388 13.054C33.1522 13.054 32.9201 13.0842 32.6963 13.1433C32.2346 12.2905 31.3284 11.7178 30.3155 11.7178C29.4877 11.7178 28.7201 12.103 28.2161 12.7212C27.8112 12.4863 27.3471 12.3595 26.8616 12.3595C26.3993 12.3595 25.9492 12.4775 25.5511 12.6983C25.153 12.4775 24.703 12.3595 24.2406 12.3595C23.468 12.3595 22.7543 12.6812 22.2508 13.2306C21.9461 13.114 21.6209 13.0539 21.2861 13.0539C20.211 13.0539 19.2769 13.67 18.8414 14.5956C18.7677 14.5895 18.6937 14.5866 18.6193 14.5866C17.4802 14.5866 16.4955 15.2894 16.1002 16.3049C14.9853 16.3704 14.05 17.1146 13.7021 18.1292C13.4943 18.0785 13.2802 18.0524 13.0644 18.0524C12.1659 18.0524 11.3461 18.4951 10.8492 19.2052C10.6434 19.1558 10.4316 19.1305 10.2185 19.1305C8.87246 19.1305 7.7531 20.119 7.54818 21.4082C6.24229 21.5987 5.23639 22.726 5.23639 24.0838C5.23639 24.3511 5.2762 24.617 5.35464 24.8739C5.44884 25.1825 5.73367 25.3933 6.05625 25.3933H47.6699C47.9515 25.3933 48.2083 25.2321 48.3306 24.9784C48.5081 24.6104 48.5981 24.2155 48.5981 23.8049C48.5982 22.5574 47.7491 21.5046 46.5986 21.1939Z"
      fill="white"
    />
    <path
      d="M46.5986 21.1939C46.4335 20.0806 45.5871 19.1862 44.4984 18.9497C44.1207 17.8976 43.1131 17.1602 41.9536 17.1602C41.7887 17.1602 41.6244 17.1754 41.4631 17.2052C41.0476 16.3725 40.2162 15.7897 39.2603 15.712C38.9427 14.5719 37.8951 13.7329 36.655 13.7329C36.2297 13.7329 35.8208 13.8298 35.4523 14.0134C34.9469 13.4183 34.1947 13.054 33.3881 13.054C33.1522 13.054 32.9201 13.0842 32.6963 13.1433C32.2347 12.2905 31.3284 11.7178 30.3155 11.7178C29.4877 11.7178 28.7202 12.103 28.2161 12.7212C27.8112 12.4863 27.3471 12.3595 26.8616 12.3595C26.7708 12.3595 26.6805 12.3654 26.5909 12.3744C26.9529 12.6499 27.2572 12.9996 27.476 13.4039C27.7407 13.334 28.0152 13.2981 28.2942 13.2981C29.2482 13.2981 30.1379 13.7291 30.7357 14.4328C31.1716 14.2157 31.6552 14.1011 32.1583 14.1011C33.6249 14.1011 34.8641 15.0935 35.2397 16.4419C36.3704 16.5339 37.3537 17.223 37.8452 18.2081C38.036 18.1729 38.2303 18.1549 38.4253 18.1549C39.7968 18.1549 40.9885 19.0269 41.4352 20.2715C42.7229 20.5512 43.724 21.609 43.9192 22.9259C45.0842 23.2404 45.9871 24.1983 46.2231 25.3931H47.6698C47.9514 25.3931 48.2082 25.2319 48.3305 24.9782C48.508 24.6102 48.598 24.2154 48.598 23.8047C48.5982 22.5574 47.7492 21.5046 46.5986 21.1939Z"
      fill="white"
    />
    <path
      d="M36.1656 43.8164H17.9636C17.5584 43.8164 17.23 44.1449 17.23 44.55V47.7993C17.23 49.0129 18.2174 50.0001 19.4308 50.0001H34.6984C35.9119 50.0001 36.8992 49.0129 36.8992 47.7993V44.55C36.8992 44.1449 36.5708 43.8164 36.1656 43.8164Z"
      fill="white"
    />
    <path
      d="M36.1656 43.8164H32.7581C33.1634 43.8164 33.4917 44.1449 33.4917 44.55V47.7993C33.4917 49.0129 32.5044 50.0001 31.291 50.0001H34.6984C35.9119 50.0001 36.8992 49.0129 36.8992 47.7993V44.55C36.8992 44.1449 36.5708 43.8164 36.1656 43.8164Z"
      fill="white"
    />
    <path
      d="M48.9635 23.8955H5.16578C4.76064 23.8955 4.43219 24.224 4.43219 24.6291C4.43219 29.0496 5.70717 33.3325 8.11932 37.0145C10.3829 40.4696 13.5264 43.2283 17.2307 45.0174H36.8984C40.6028 43.2283 43.7462 40.4697 46.0099 37.0145C48.422 33.3324 49.697 29.0496 49.697 24.6291C49.6971 24.224 49.3686 23.8955 48.9635 23.8955Z"
      fill="white"
    />
    <path
      d="M48.9635 23.8955H45.556C45.9612 23.8955 46.2896 24.224 46.2896 24.6291C46.2896 29.0496 45.0146 33.3325 42.6025 37.0145C40.3389 40.4696 37.1954 43.2283 33.4911 45.0174H36.8985C40.6029 43.2283 43.7463 40.4697 46.01 37.0145C48.4221 33.3324 49.6971 29.0496 49.6971 24.6291C49.6971 24.224 49.3686 23.8955 48.9635 23.8955Z"
      fill="#09C073"
    />
    <path
      d="M48.9635 23.8955H5.16578C4.76064 23.8955 4.43219 24.224 4.43219 24.6291C4.43219 26.9405 4.78148 29.2141 5.45893 31.3839H48.6703C49.3477 29.2141 49.697 26.9405 49.697 24.6291C49.6971 24.224 49.3686 23.8955 48.9635 23.8955Z"
      fill="#08AA6B"
    />
    <path
      d="M48.9635 23.8955H45.556C45.9613 23.8955 46.2896 24.224 46.2896 24.6291C46.2896 26.9405 45.9403 29.2141 45.2629 31.3839H48.6704C49.3478 29.2141 49.6971 26.9405 49.6971 24.6291C49.6971 24.224 49.3686 23.8955 48.9635 23.8955Z"
      fill="#089061"
    />
  </g>
  <defs>
    <clipPath id="clip0_28667_1797">
      <rect width="50" height="50" fill="white" />
    </clipPath>
  </defs>
</svg>
