<svg width="46" height="46" viewBox="0 0 46 46" fill="none" xmlns="http://www.w3.org/2000/svg">
    <path
        d="M0 14.5418C0 12.3327 1.79083 10.5417 3.99983 10.5417H6.851V42.5748C6.851 44.4667 5.31733 46.0003 3.4255 46.0003C1.5335 46.0003 0 44.4667 0 42.5748V14.5418Z"
        fill="white" fill-opacity="0.32" />
    <path
        d="M40.0003 0C43.3138 0.000333333 46.0003 2.6865 46.0003 6V40.0002C46.0003 43.3138 43.3138 46 40.0003 46.0003H3.93617C3.87583 46.0003 3.81683 45.994 3.75933 45.9837C5.49433 45.8157 6.851 44.354 6.851 42.5748L6.85117 6C6.85117 2.68633 9.5375 0 12.8512 0H40.0003Z"
        fill="white" />
    <path
        d="M25.9673 33.5423C26.7612 33.5423 27.4048 34.186 27.4048 34.9798C27.4047 35.7737 26.7612 36.4173 25.9673 36.4173H14.1617C13.3678 36.4173 12.7243 35.7737 12.7242 34.9798C12.7242 34.186 13.3678 33.5423 14.1617 33.5423H25.9673ZM38.6908 27.7923C39.4847 27.7923 40.1283 28.4358 40.1283 29.2298C40.1282 30.0235 39.4847 30.6673 38.6908 30.6673H14.1617C13.3678 30.6673 12.7243 30.0235 12.7242 29.2298C12.7242 28.4358 13.3678 27.7923 14.1617 27.7923H38.6908ZM38.1283 5.75017C39.2328 5.75017 40.1283 6.64567 40.1283 7.75017V22.9173C40.1282 24.0217 39.2328 24.9173 38.1283 24.9173H14.7242C13.6198 24.9173 12.7243 24.0217 12.7242 22.9173V7.75017C12.7242 6.6455 13.6197 5.75017 14.7242 5.75017H38.1283Z"
        fill="url(#paint0_linear_4284_11999)" />
    <defs>
        <linearGradient id="paint0_linear_4284_11999" x1="23.0002" y1="0" x2="23.0002" y2="46.0003"
            gradientUnits="userSpaceOnUse">
            <stop stop-color="#FF9A56" />
            <stop offset="1" stop-color="#FF6A43" />
        </linearGradient>
    </defs>
</svg>