<svg width="46" height="46" viewBox="0 0 46 46" fill="none" xmlns="http://www.w3.org/2000/svg">
    <path
        d="M22.9997 10C24.1043 10 25 10.8958 25 12.0003V12.9997C25 13.104 25.067 13.1982 25.1683 13.2225C25.7123 13.3537 26.2163 13.5427 26.6797 13.7907C27.6638 14.3177 28.4222 15.0605 28.9552 16.0188C29.1548 16.372 29.3187 16.7475 29.445 17.1452C29.8207 18.3275 28.7633 19.3618 27.5228 19.362H27.0752C26.1497 19.3618 25.4818 18.5223 24.8193 17.876C24.4603 17.5205 23.913 17.3422 23.1787 17.3422C22.7117 17.3422 22.3285 17.4093 22.0297 17.5423C21.7362 17.6692 21.5183 17.8443 21.377 18.0665C21.2357 18.2885 21.1612 18.5427 21.1557 18.8282C21.1447 19.063 21.1815 19.2757 21.263 19.4662C21.35 19.6502 21.4853 19.8185 21.67 19.9707C21.8548 20.1167 22.0915 20.2505 22.3795 20.3712C22.6678 20.4917 23.0112 20.5998 23.4082 20.695L24.7787 21.0385C25.7032 21.267 26.4953 21.5688 27.1533 21.9433C27.8112 22.3178 28.3493 22.7588 28.768 23.2667C29.1867 23.7682 29.495 24.334 29.6908 24.9627C29.8918 25.5907 29.9945 26.276 30 27.0182C29.9945 28.3008 29.7203 29.3878 29.1765 30.2767C28.6325 31.1655 27.854 31.8413 26.8425 32.3047C26.3265 32.5423 25.7565 32.7162 25.1332 32.8315C25.0532 32.8463 25 32.9183 25 32.9997V34.0007C24.9997 35.105 24.104 35.9993 22.9997 35.9993C21.8955 35.9992 20.9997 35.1048 20.9993 34.0007V32.9997C20.9993 32.8718 20.9173 32.7548 20.793 32.7245C20.303 32.605 19.842 32.4475 19.4108 32.2477C18.334 31.7462 17.4962 30.9745 16.8978 29.9333C16.596 29.3998 16.3703 28.7903 16.2207 28.1055C15.9612 26.9162 16.9892 25.9148 18.2063 25.9147H18.7403C19.617 25.9147 20.2622 26.6543 20.6918 27.4187C20.9202 27.825 21.2403 28.1337 21.6537 28.3432C22.0723 28.5525 22.57 28.6572 23.1462 28.6572C23.6302 28.6572 24.0357 28.5868 24.362 28.4473C24.6883 28.3077 24.9355 28.1138 25.1042 27.8662C25.2728 27.6187 25.3608 27.3357 25.3662 27.0182C25.3607 26.7202 25.2753 26.4607 25.1123 26.2387C24.9547 26.01 24.6938 25.806 24.3295 25.6283C23.965 25.4442 23.473 25.2727 22.8532 25.114L21.1882 24.6957C19.709 24.321 18.5427 23.6952 17.6888 22.819C16.8403 21.9365 16.4187 20.7328 16.4242 19.209C16.4188 17.9713 16.7013 16.8887 17.2722 15.962C17.8487 15.0287 18.646 14.3015 19.6632 13.781C20.0112 13.6038 20.3768 13.4582 20.7597 13.3418C20.907 13.2972 20.9993 13.1537 20.9993 12.9997V12.0003C20.9993 10.8958 21.8953 10.0002 22.9997 10Z"
        fill="white" />
    <path fill-rule="evenodd" clip-rule="evenodd"
        d="M22.9997 0C35.7022 0 45.9992 10.2973 45.9993 22.9997C45.9993 35.7022 35.7022 45.9993 22.9997 45.9993C10.2973 45.9992 0 35.7022 0 22.9997C0.000166667 10.2973 10.2973 0.000166667 22.9997 0.000166667Z"
        fill="white" />
</svg>