<svg xmlns="http://www.w3.org/2000/svg" width="40" height="40" viewBox="0 0 40 40" fill="none">
    <path d="M38.1817 17.1433H35.8167C35.4434 17.1487 35.0776 17.0385 34.7693 16.8279C34.4611 16.6172 34.2256 16.3164 34.095 15.9667C33.9583 15.58 33.8089 15.1989 33.6467 14.8233C33.4985 14.4954 33.4495 14.1313 33.5058 13.776C33.5621 13.4206 33.7211 13.0894 33.9633 12.8233L36.1117 10.5317C36.4274 10.1947 36.6032 9.75016 36.6032 9.28833C36.6032 8.82651 36.4274 8.38199 36.1117 8.045L32.9783 4.71167C32.8083 4.53022 32.6028 4.38559 32.3746 4.28672C32.1464 4.18785 31.9004 4.13683 31.6517 4.13683C31.403 4.13683 31.1569 4.18785 30.9287 4.28672C30.7006 4.38559 30.4951 4.53022 30.325 4.71167L28.4383 6.71333C28.1833 6.99094 27.8468 7.18051 27.4773 7.25478C27.1077 7.32905 26.7241 7.2842 26.3817 7.12667C26.0483 6.97 25.715 6.82333 25.3817 6.68667C25.0526 6.54537 24.7729 6.30975 24.5777 6.00955C24.3825 5.70936 24.2806 5.35805 24.285 5V1.83333C24.2872 1.59337 24.2418 1.35534 24.1515 1.13301C24.0612 0.910671 23.9278 0.708432 23.7588 0.537969C23.5899 0.367507 23.3889 0.2322 23.1674 0.139863C22.9459 0.047527 22.7083 -9.3341e-06 22.4683 7.65301e-07H18.9683C18.7295 -0.000218463 18.4929 0.0466643 18.2722 0.137966C18.0515 0.229269 17.851 0.363198 17.6821 0.532089C17.5132 0.700981 17.3793 0.90152 17.288 1.12223C17.1967 1.34294 17.1498 1.57949 17.15 1.81833V4.18333C17.1554 4.55662 17.0452 4.92243 16.8345 5.23065C16.6239 5.53887 16.3231 5.77441 15.9733 5.905C15.5867 6.04167 15.2056 6.19111 14.83 6.35333C14.5025 6.50302 14.1382 6.55298 13.7826 6.49696C13.4269 6.44094 13.0956 6.28143 12.83 6.03833L10.7733 4.11667C10.61 3.92079 10.4094 3.75932 10.1831 3.64165C9.95681 3.52397 9.70941 3.45244 9.45526 3.43119C9.2011 3.40995 8.94525 3.43942 8.70258 3.5179C8.45991 3.59637 8.23526 3.72229 8.04167 3.88833L4.70833 7.02167C4.52689 7.19174 4.38226 7.39722 4.28339 7.62541C4.18451 7.8536 4.1335 8.09964 4.1335 8.34833C4.1335 8.59702 4.18451 8.84307 4.28339 9.07126C4.38226 9.29945 4.52689 9.50493 4.70833 9.675L6.72167 11.5617C6.99927 11.8167 7.18884 12.1532 7.26311 12.5227C7.33739 12.8923 7.29253 13.2759 7.135 13.6183C6.97833 13.9517 6.83167 14.285 6.695 14.6183C6.55298 14.9485 6.31603 15.2291 6.01423 15.4244C5.71243 15.6196 5.35941 15.7208 5 15.715H1.81833C1.57963 15.7148 1.34321 15.7616 1.12261 15.8528C0.902013 15.944 0.701549 16.0778 0.532679 16.2465C0.36381 16.4152 0.229846 16.6156 0.138446 16.8361C0.0470454 17.0566 6.64843e-07 17.293 7.65301e-07 17.5317V21.0317C-0.000218463 21.2705 0.0466643 21.5071 0.137966 21.7278C0.229269 21.9485 0.363198 22.149 0.532089 22.3179C0.700981 22.4868 0.90152 22.6207 1.12223 22.712C1.34294 22.8033 1.57949 22.8502 1.81833 22.85H4.18333C4.55662 22.8446 4.92243 22.9548 5.23065 23.1655C5.53887 23.3761 5.77441 23.6769 5.905 24.0267C6.04167 24.4133 6.19111 24.7944 6.35333 25.17C6.50151 25.4979 6.55048 25.862 6.49421 26.2174C6.43794 26.5728 6.27889 26.9039 6.03667 27.17L3.88833 29.4717C3.57255 29.8087 3.39682 30.2532 3.39682 30.715C3.39682 31.1768 3.57255 31.6213 3.88833 31.9583L7.02167 35.3C7.19174 35.4814 7.39722 35.6261 7.62541 35.7249C7.8536 35.8238 8.09964 35.8748 8.34833 35.8748C8.59702 35.8748 8.84307 35.8238 9.07126 35.7249C9.29945 35.6261 9.50493 35.4814 9.675 35.3L11.5617 33.2867C11.8167 33.0091 12.1532 32.8195 12.5227 32.7452C12.8923 32.6709 13.2759 32.7158 13.6183 32.8733C13.9517 33.03 14.285 33.1767 14.6183 33.3133C14.9472 33.4548 15.2269 33.6905 15.422 33.9906C15.6172 34.2908 15.7191 34.642 15.715 35V38.1767C15.7141 38.4158 15.7605 38.6527 15.8514 38.8739C15.9423 39.0951 16.0759 39.2962 16.2447 39.4656C16.4135 39.635 16.6141 39.7694 16.8349 39.8611C17.0558 39.9528 17.2925 40 17.5317 40H21.0317C21.2705 40.0002 21.5071 39.9533 21.7278 39.862C21.9485 39.7707 22.149 39.6368 22.3179 39.4679C22.4868 39.299 22.6207 39.0985 22.712 38.8778C22.8033 38.6571 22.8502 38.4205 22.85 38.1817V35.8167C22.8446 35.4434 22.9548 35.0776 23.1655 34.7693C23.3761 34.4611 23.6769 34.2256 24.0267 34.095C24.4133 33.9583 24.7944 33.8089 25.17 33.6467C25.4975 33.497 25.8618 33.447 26.2174 33.503C26.5731 33.5591 26.9044 33.7186 27.17 33.9617L29.2183 35.8833C29.3818 36.079 29.5825 36.2403 29.8088 36.3579C30.035 36.4754 30.2824 36.5469 30.5365 36.5681C30.7906 36.5893 31.0463 36.5599 31.289 36.4816C31.5316 36.4032 31.7563 36.2775 31.95 36.1117L35.2917 32.9783C35.4731 32.8083 35.6177 32.6028 35.7166 32.3746C35.8155 32.1464 35.8665 31.9004 35.8665 31.6517C35.8665 31.403 35.8155 31.1569 35.7166 30.9287C35.6177 30.7006 35.4731 30.4951 35.2917 30.325L33.2783 28.4383C33.0007 28.1833 32.8112 27.8468 32.7369 27.4773C32.6626 27.1077 32.7075 26.7241 32.865 26.3817C33.0217 26.0483 33.1683 25.715 33.305 25.3817C33.447 25.0515 33.684 24.7709 33.9858 24.5756C34.2876 24.3804 34.6406 24.2792 35 24.285H38.1767C38.4158 24.2859 38.6527 24.2395 38.8739 24.1486C39.0951 24.0577 39.2962 23.9241 39.4656 23.7553C39.635 23.5865 39.7694 23.3859 39.8611 23.1651C39.9528 22.9442 40 22.7075 40 22.4683V18.9683C40.0011 18.7289 39.9549 18.4917 39.864 18.2702C39.773 18.0487 39.6393 17.8474 39.4703 17.6778C39.3013 17.5082 39.1005 17.3736 38.8793 17.2819C38.6582 17.1902 38.4211 17.1431 38.1817 17.1433ZM20 25.3333C18.9452 25.3333 17.914 25.0205 17.037 24.4345C16.1599 23.8485 15.4763 23.0155 15.0726 22.041C14.669 21.0664 14.5634 19.9941 14.7691 18.9595C14.9749 17.925 15.4829 16.9746 16.2288 16.2288C16.9746 15.4829 17.925 14.9749 18.9595 14.7691C19.9941 14.5634 21.0664 14.669 22.041 15.0726C23.0155 15.4763 23.8485 16.1599 24.4345 17.037C25.0205 17.914 25.3333 18.9452 25.3333 20C25.3333 21.4145 24.7714 22.771 23.7712 23.7712C22.771 24.7714 21.4145 25.3333 20 25.3333Z" fill="white"/>
  </svg>