<svg width="56" height="48" viewBox="0 0 56 48" fill="none" xmlns="http://www.w3.org/2000/svg">
    <g clip-path="url(#clip0_4212_774)" filter="url(#filter0_d_4212_774)">
        <path
            d="M45.3687 17.3604C45.6254 18.5154 45.7742 19.7025 45.7742 20.9217C45.7742 30.3367 37.7825 38.1854 27.2592 39.8713C29.4846 40.7696 31.9783 41.2946 34.6354 41.2946C37.1408 41.2946 39.5062 40.8338 41.6412 40.0317C44.345 40.9533 47.2967 41.1925 49.7379 41.1925C48.6355 39.8705 47.7018 38.4166 46.9583 36.8642C49.665 34.4492 51.3333 31.2496 51.3333 27.7262C51.3333 23.5613 49.0087 19.8483 45.3687 17.3604ZM41.3992 20.9217C41.3992 12.6821 33.1771 6 23.0329 6C12.8887 6 4.66666 12.6821 4.66666 20.9217C4.66666 25.2208 6.91541 29.0825 10.4971 31.8067C9.59885 34.1073 8.33308 36.2468 6.74916 38.1417C10.4183 38.1417 15.1433 37.6604 18.7804 35.4263C20.1483 35.6917 21.5687 35.8462 23.0329 35.8462C33.1771 35.8433 41.3992 29.1642 41.3992 20.9217Z"
            fill="white" />
        <path
            d="M45.3687 17.3604C45.6254 18.5154 45.7742 19.7024 45.7742 20.9216C45.7742 30.3366 37.7825 38.1854 27.2592 39.8712C29.4846 40.7695 31.9783 41.2945 34.6354 41.2945C37.1408 41.2945 39.5062 40.8337 41.6412 40.0316C44.345 40.9533 47.2967 41.1924 49.7379 41.1924C48.6355 39.8705 47.7018 38.4165 46.9583 36.8641C49.665 34.4491 51.3333 31.2495 51.3333 27.7262C51.3333 23.5612 49.0087 19.8483 45.3687 17.3604Z"
            fill="url(#paint0_linear_4212_774)" />
    </g>
    <defs>
        <filter id="filter0_d_4212_774" x="0.666656" y="-1.8335" width="54.6667" height="54.6665"
            filterUnits="userSpaceOnUse" color-interpolation-filters="sRGB">
            <feFlood flood-opacity="0" result="BackgroundImageFix" />
            <feColorMatrix in="SourceAlpha" type="matrix"
                values="0 0 0 0 0 0 0 0 0 0 0 0 0 0 0 0 0 0 127 0" result="hardAlpha" />
            <feOffset dy="2" />
            <feGaussianBlur stdDeviation="2" />
            <feComposite in2="hardAlpha" operator="out" />
            <feColorMatrix type="matrix"
                values="0 0 0 0 0.180392 0 0 0 0 0.243137 0 0 0 0 0.317647 0 0 0 0.16 0" />
            <feBlend mode="normal" in2="BackgroundImageFix" result="effect1_dropShadow_4212_774" />
            <feBlend mode="normal" in="SourceGraphic" in2="effect1_dropShadow_4212_774"
                result="shape" />
        </filter>
        <linearGradient id="paint0_linear_4212_774" x1="39.2962" y1="17.3604" x2="39.2962"
            y2="41.2945" gradientUnits="userSpaceOnUse">
            <stop stop-color="#FF9A56" />
            <stop offset="0.9999" stop-color="#FF9253" />
            <stop offset="1" stop-color="#FF6A43" />
        </linearGradient>
        <clipPath id="clip0_4212_774">
            <rect width="46.6667" height="46.6667" fill="white"
                transform="translate(4.66666 0.166504)" />
        </clipPath>
    </defs>
</svg>