<svg width="18" height="17" viewBox="0 0 18 17" fill="none" xmlns="http://www.w3.org/2000/svg">
<path d="M3 0.100098C1.67452 0.100098 0.6 1.17461 0.6 2.5001V4.9001C0.6 6.22558 1.67452 7.3001 3 7.3001H5.4C6.72548 7.3001 7.8 6.22558 7.8 4.9001V2.5001C7.8 1.17461 6.72548 0.100098 5.4 0.100098H3Z" fill="#111827"/>
<path d="M3 9.7001C1.67452 9.7001 0.6 10.7746 0.6 12.1001V14.5001C0.6 15.8256 1.67452 16.9001 3 16.9001H5.4C6.72548 16.9001 7.8 15.8256 7.8 14.5001V12.1001C7.8 10.7746 6.72548 9.7001 5.4 9.7001H3Z" fill="#111827"/>
<path d="M10.2 2.5001C10.2 1.17461 11.2745 0.100098 12.6 0.100098H15C16.3255 0.100098 17.4 1.17461 17.4 2.5001V4.9001C17.4 6.22558 16.3255 7.3001 15 7.3001H12.6C11.2745 7.3001 10.2 6.22558 10.2 4.9001V2.5001Z" fill="#111827"/>
<path d="M10.2 12.1001C10.2 10.7746 11.2745 9.7001 12.6 9.7001H15C16.3255 9.7001 17.4 10.7746 17.4 12.1001V14.5001C17.4 15.8256 16.3255 16.9001 15 16.9001H12.6C11.2745 16.9001 10.2 15.8256 10.2 14.5001V12.1001Z" fill="#111827"/>
</svg>
