<svg width="32" height="32" viewBox="0 0 32 32" fill="none" xmlns="http://www.w3.org/2000/svg">
<g clip-path="url(#clip0_849_23967)">
<path d="M0 16C0 3.2 3.2 0 16 0C28.8 0 32 3.2 32 16C32 28.8 28.8 32 16 32C3.2 32 0 28.8 0 16Z" fill="url(#paint0_linear_849_23967)"/>
<path fill-rule="evenodd" clip-rule="evenodd" d="M15.9998 17.0765C16.3565 17.0765 16.6457 17.3657 16.6457 17.7224C16.6457 18.7164 17.0069 20.7221 19.5002 21.8728C20.0231 22.1141 20.6594 22.1686 21.2045 22.1484C21.4704 22.1386 21.6997 22.1116 21.8612 22.0873C21.9417 22.0752 22.0045 22.0639 22.0457 22.0559C22.0663 22.0519 22.0815 22.0488 22.0907 22.0469L22.0999 22.0449C22.4475 21.9655 22.7939 22.1827 22.8735 22.5304C22.9531 22.8781 22.7358 23.2246 22.3881 23.3042L22.2439 22.6746C22.3881 23.3042 22.3882 23.3042 22.3881 23.3042L22.3865 23.3046L22.3843 23.3051L22.3781 23.3065L22.3582 23.3107C22.3418 23.3142 22.3191 23.3189 22.2905 23.3244C22.2335 23.3354 22.1531 23.3498 22.0534 23.3648C21.8546 23.3947 21.5762 23.4274 21.2523 23.4394C20.6182 23.4629 19.7473 23.4097 18.9588 23.0457C15.8539 21.6127 15.3539 19.0251 15.3539 17.7224C15.3539 17.3657 15.6431 17.0765 15.9998 17.0765Z" fill="white"/>
<path fill-rule="evenodd" clip-rule="evenodd" d="M12.7265 10.0253C14.3622 9.30959 17.9029 8.70706 20.9089 10.9615C23.8719 13.1838 24.4777 16.3695 24.3958 17.7603C24.3955 17.7655 24.3951 17.7708 24.3947 17.776C24.3511 18.2998 24.1477 19.0679 23.6611 19.7225C23.1554 20.4029 22.3447 20.952 21.1673 20.9521C19.9663 20.9521 19.1761 20.4006 18.6866 19.7112C18.2219 19.0566 18.0398 18.2975 17.9501 17.8491C17.7583 16.89 17.3934 16.395 17.0565 16.1329C16.7135 15.8661 16.3268 15.7845 15.9997 15.7845C15.2063 15.7845 14.7387 16.14 14.4502 16.5732C14.139 17.0406 14.042 17.5987 14.0607 17.8975C14.1618 19.5149 14.6128 20.7434 15.2909 21.7121C15.9721 22.6852 16.908 23.4325 18.0315 24.0453C18.3447 24.2162 18.4601 24.6085 18.2893 24.9217C18.1185 25.2349 17.7261 25.3503 17.4129 25.1795C16.1681 24.5005 15.0585 23.6329 14.2325 22.4529C13.4034 21.2685 12.8855 19.8055 12.7713 17.978C12.7361 17.4155 12.8975 16.5741 13.3749 15.8572C13.875 15.1061 14.7261 14.4927 15.9997 14.4927C16.5339 14.4927 17.2238 14.6264 17.8497 15.1132C18.4817 15.6048 18.9781 16.4017 19.2169 17.5957C19.2995 18.0085 19.4404 18.5413 19.74 18.9633C20.0149 19.3505 20.4304 19.6602 21.1672 19.6602C21.8846 19.6601 22.3299 19.348 22.6243 18.9518C22.9356 18.5331 23.0771 18.0141 23.1067 17.6763C23.1654 16.6211 22.6762 13.9019 20.1337 11.9951C17.6277 10.1155 14.6229 10.6057 13.2443 11.2089C12.0367 11.7373 9.76908 12.9827 9.09721 16.3419C8.96448 17.0055 8.70001 18.7268 9.49421 20.7122C9.62668 21.0435 9.46555 21.4193 9.13435 21.5519C8.80308 21.6843 8.42721 21.5232 8.29468 21.192C7.36635 18.8712 7.67601 16.8605 7.83041 16.0885C8.62275 12.1271 11.3503 10.6274 12.7265 10.0253Z" fill="white"/>
<path fill-rule="evenodd" clip-rule="evenodd" d="M12.4813 13.0663C13.6757 12.1962 15.0646 11.9089 15.9998 11.9089C16.0177 11.9089 16.0356 11.9097 16.0534 11.9112C18.3045 12.0987 19.767 13.0897 20.6537 14.2924C21.5225 15.4709 21.8132 16.8163 21.8132 17.7224C21.8132 18.0791 21.524 18.3683 21.1673 18.3683C20.8105 18.3683 20.5213 18.0791 20.5213 17.7224C20.5213 17.0495 20.2953 15.9834 19.6139 15.059C18.9535 14.1633 17.8399 13.3633 15.9735 13.2009C15.2573 13.2065 14.1642 13.4386 13.2419 14.1105C12.3388 14.7684 11.5592 15.8745 11.4782 17.7361C11.4782 18.626 11.4835 20.9545 13.4974 23.5726C13.7149 23.8554 13.662 24.2609 13.3793 24.4784C13.0965 24.6959 12.6909 24.6431 12.4734 24.3603C10.1915 21.3938 10.1863 18.709 10.1863 17.7224C10.1863 17.7134 10.1865 17.7045 10.1869 17.6955C10.2813 15.431 11.2585 13.9571 12.4813 13.0663Z" fill="white"/>
<path fill-rule="evenodd" clip-rule="evenodd" d="M10.8016 9.57452C9.46808 10.4208 8.63261 11.3759 8.37181 11.8107C8.18828 12.1166 7.79148 12.2158 7.48561 12.0323C7.17968 11.8487 7.08048 11.4519 7.26401 11.1461C7.64908 10.5042 8.64381 9.41386 10.1093 8.48379C11.5892 7.54466 13.5915 6.74152 15.9998 6.74146C20.4033 6.74146 23.3277 9.26319 24.6984 11.0908C24.9125 11.3762 24.8546 11.7811 24.5692 11.9951C24.2838 12.2092 23.8789 12.1513 23.6649 11.8659C22.4518 10.2485 19.8715 8.03332 15.9998 8.03339C13.8864 8.03339 12.1208 8.73732 10.8016 9.57452Z" fill="white"/>
</g>
<defs>
<linearGradient id="paint0_linear_849_23967" x1="16" y1="0" x2="16" y2="32" gradientUnits="userSpaceOnUse">
<stop stop-color="#09D47B"/>
<stop offset="1" stop-color="#07554B"/>
</linearGradient>
<clipPath id="clip0_849_23967">
<rect width="32" height="32" fill="white"/>
</clipPath>
</defs>
</svg>
