<svg width="32" height="32" viewBox="0 0 32 32" fill="none" xmlns="http://www.w3.org/2000/svg">
<g clip-path="url(#clip0_849_23976)">
<path d="M0 16C0 3.2 3.2 0 16 0C28.8 0 32 3.2 32 16C32 28.8 28.8 32 16 32C3.2 32 0 28.8 0 16Z" fill="url(#paint0_linear_849_23976)"/>
<path d="M15.7572 15.3974C15.2698 15.3444 14.7919 15.2256 14.3364 15.0443C13.7529 14.8563 12.9946 14.5966 12.2009 14.3082C11.4411 14.0322 10.7177 13.7574 10.1639 13.534C9.87257 13.4164 9.63757 13.3175 9.46951 13.2396C9.36437 13.194 9.26237 13.1413 9.16424 13.0821C9.04117 13.0166 8.92904 12.9324 8.83184 12.8325C8.73784 12.7438 8.61531 12.6216 8.46831 12.4686C8.22391 12.2144 7.99384 11.9628 7.98404 11.9524C7.88517 11.8325 7.83604 11.6793 7.84691 11.5243C7.85771 11.3693 7.92764 11.2244 8.04224 11.1195C8.15684 11.0146 8.30737 10.9577 8.46271 10.9606C8.61804 10.9635 8.76631 11.0259 8.87697 11.135C9.17211 11.458 9.54171 11.8437 9.69657 11.9843C9.74517 12.0069 9.79057 12.0358 9.83157 12.0704C10.053 12.1903 11.0783 12.6156 12.7378 13.2148C14.2928 13.7762 15.2162 14.06 15.5974 14.1522L21.9626 8.38776C22.0818 8.27989 22.2389 8.22376 22.3994 8.23169C22.56 8.23969 22.7108 8.31109 22.8187 8.43023C22.9266 8.54943 22.9827 8.70656 22.9748 8.86709C22.9668 9.02763 22.8954 9.17843 22.7762 9.28636L16.2343 15.2124C16.1712 15.2736 16.0965 15.3214 16.0145 15.3532C15.9326 15.385 15.8451 15.4 15.7572 15.3974Z" fill="white"/>
<path d="M9.89411 14.3774C10.9398 14.0776 11.5444 12.9868 11.2446 11.9411C10.9448 10.8954 9.85397 10.2908 8.80831 10.5906C7.76257 10.8905 7.15797 11.9812 7.45777 13.027C7.75764 14.0726 8.84844 14.6773 9.89411 14.3774Z" fill="white"/>
<path d="M16.2583 16.4986C17.304 16.1988 17.9086 15.108 17.6088 14.0623C17.3089 13.0166 16.2182 12.412 15.1724 12.7118C14.1268 13.0116 13.5221 14.1024 13.822 15.1481C14.1218 16.1938 15.2126 16.7984 16.2583 16.4986Z" fill="white"/>
<path d="M22.9249 10.7297C23.9706 10.4299 24.5752 9.33909 24.2754 8.29336C23.9756 7.24769 22.8848 6.64306 21.8391 6.94289C20.7934 7.24276 20.1888 8.33356 20.4886 9.37923C20.7884 10.425 21.8792 11.0296 22.9249 10.7297Z" fill="white"/>
<path d="M11.4602 19.139C11.4602 17.9675 10.5106 17.0178 9.33904 17.0178C8.16751 17.0178 7.21777 17.9675 7.21777 19.139V23.0788C7.21777 24.2503 8.16751 25.2 9.33904 25.2C10.5106 25.2 11.4602 24.2503 11.4602 23.0788V19.139Z" fill="white"/>
<path d="M18.1274 20.0482C18.1274 18.8766 17.1776 17.927 16.0061 17.927C14.8346 17.927 13.8849 18.8766 13.8849 20.0482V23.0788C13.8849 24.2504 14.8346 25.2001 16.0061 25.2001C17.1776 25.2001 18.1274 24.2504 18.1274 23.0788V20.0482Z" fill="white"/>
<path d="M24.794 15.5026C24.794 14.3312 23.8443 13.3814 22.6728 13.3814C21.5012 13.3814 20.5516 14.3312 20.5516 15.5026V23.0788C20.5516 24.2504 21.5012 25.2 22.6728 25.2C23.8443 25.2 24.794 24.2504 24.794 23.0788V15.5026Z" fill="white"/>
</g>
<defs>
<linearGradient id="paint0_linear_849_23976" x1="16" y1="0" x2="16" y2="32" gradientUnits="userSpaceOnUse">
<stop stop-color="#09D47B"/>
<stop offset="1" stop-color="#07554B"/>
</linearGradient>
<clipPath id="clip0_849_23976">
<rect width="32" height="32" fill="white"/>
</clipPath>
</defs>
</svg>
