<svg width="32" height="32" viewBox="0 0 32 32" fill="none" xmlns="http://www.w3.org/2000/svg">
<g clip-path="url(#clip0_849_23979)">
<path d="M0 16C0 3.2 3.2 0 16 0C28.8 0 32 3.2 32 16C32 28.8 28.8 32 16 32C3.2 32 0 28.8 0 16Z" fill="url(#paint0_linear_849_23979)"/>
<path d="M6.7998 12.6167C6.7998 11.7331 7.51614 11.0167 8.39974 11.0167H9.54021V23.8299C9.54021 24.5867 8.92674 25.2001 8.17 25.2001C7.4132 25.2001 6.7998 24.5867 6.7998 23.8299V12.6167Z" fill="white" fill-opacity="0.32"/>
<path d="M22.7999 6.79999C24.1253 6.80012 25.1999 7.87459 25.1999 9.19999V22.8001C25.1999 24.1255 24.1253 25.2 22.7999 25.2001H8.37427C8.35014 25.2001 8.32654 25.1976 8.30354 25.1935C8.99754 25.1263 9.54021 24.5416 9.54021 23.8299L9.54027 9.19999C9.54027 7.87452 10.6148 6.79999 11.9403 6.79999H22.7999Z" fill="white"/>
<path d="M17.1867 20.2169C17.5043 20.2169 17.7617 20.4744 17.7617 20.7919C17.7617 21.1095 17.5043 21.3669 17.1867 21.3669H12.4645C12.1469 21.3669 11.8895 21.1095 11.8895 20.7919C11.8895 20.4744 12.1469 20.2169 12.4645 20.2169H17.1867ZM22.2761 17.9169C22.5937 17.9169 22.8511 18.1743 22.8511 18.4919C22.8511 18.8094 22.5937 19.0669 22.2761 19.0669H12.4645C12.1469 19.0669 11.8895 18.8094 11.8895 18.4919C11.8895 18.1743 12.1469 17.9169 12.4645 17.9169H22.2761ZM22.0511 9.10005C22.4929 9.10005 22.8511 9.45825 22.8511 9.90005V15.9669C22.8511 16.4087 22.4929 16.7669 22.0511 16.7669H12.6895C12.2477 16.7669 11.8895 16.4087 11.8895 15.9669V9.90005C11.8895 9.45819 12.2477 9.10005 12.6895 9.10005H22.0511Z" fill="url(#paint1_linear_849_23979)"/>
</g>
<defs>
<linearGradient id="paint0_linear_849_23979" x1="16" y1="0" x2="16" y2="32" gradientUnits="userSpaceOnUse">
<stop stop-color="#09D47B"/>
<stop offset="1" stop-color="#07554B"/>
</linearGradient>
<linearGradient id="paint1_linear_849_23979" x1="15.9999" y1="6.79999" x2="15.9999" y2="25.2001" gradientUnits="userSpaceOnUse">
<stop stop-color="#09D47B"/>
<stop offset="1" stop-color="#07554B"/>
</linearGradient>
<clipPath id="clip0_849_23979">
<rect width="32" height="32" fill="white"/>
</clipPath>
</defs>
</svg>
