<svg width="32" height="32" viewBox="0 0 32 32" fill="none" xmlns="http://www.w3.org/2000/svg">
<g clip-path="url(#clip0_849_23961)">
<path d="M0 16C0 3.2 3.2 0 16 0C28.8 0 32 3.2 32 16C32 28.8 28.8 32 16 32C3.2 32 0 28.8 0 16Z" fill="url(#paint0_linear_849_23961)"/>
<g filter="url(#filter0_d_849_23961)">
<path d="M15.9997 6.79999C21.0806 6.79999 25.1995 10.9189 25.1995 15.9999C25.1995 17.9626 24.5847 19.7816 23.5374 21.2753L24.7307 22.4686L24.7881 22.5285C25.3553 23.1566 25.336 24.1257 24.7307 24.731C24.1255 25.3362 23.1563 25.3556 22.5283 24.7883L22.4684 24.731L21.275 23.5376C19.7814 24.5849 17.9624 25.1997 15.9997 25.1997C10.9187 25.1997 6.7998 21.0809 6.7998 15.9999C6.79987 10.9189 10.9187 6.80005 15.9997 6.79999ZM15.9997 9.21012C12.25 9.21019 9.21 12.2502 9.20994 15.9999C9.20994 19.7496 12.2499 22.7895 15.9997 22.7896C19.7494 22.7896 22.7893 19.7496 22.7893 15.9999C22.7893 12.2502 19.7493 9.21012 15.9997 9.21012ZM16.8401 16.8C17.5693 16.8131 18.2823 17.0215 18.9072 17.4041C19.0416 17.4865 19.1709 17.5764 19.2945 17.6731C20.1213 18.3189 20.0216 19.5672 19.1657 20.1737C18.9425 20.3318 18.7079 20.4739 18.4632 20.5982C17.7062 20.9825 16.8735 21.1883 16.0276 21.1997C15.1819 21.2111 14.3444 21.0276 13.5777 20.6639C13.3269 20.5449 13.0855 20.4075 12.8557 20.2531C11.9898 19.6711 11.8547 18.4343 12.6539 17.7635C12.7943 17.6457 12.9425 17.5367 13.0979 17.438C13.7362 17.0331 14.4709 16.8127 15.2229 16.8H16.8401ZM15.9997 10.8C16.6361 10.8 17.2468 11.0531 17.6969 11.5031C18.1469 11.9531 18.3999 12.5633 18.4 13.1997C18.4 13.8363 18.1469 14.4469 17.6969 14.897C17.2468 15.3471 16.6361 15.6001 15.9997 15.6001C15.3632 15.6001 14.7531 15.347 14.303 14.897C13.8529 14.4469 13.5999 13.8363 13.5999 13.1997C13.6 12.5633 13.853 11.9531 14.303 11.5031C14.7531 11.0531 15.3632 10.8001 15.9997 10.8Z" fill="white"/>
</g>
</g>
<defs>
<filter id="filter0_d_849_23961" x="2.7998" y="4.79999" width="26.3994" height="26.3998" filterUnits="userSpaceOnUse" color-interpolation-filters="sRGB">
<feFlood flood-opacity="0" result="BackgroundImageFix"/>
<feColorMatrix in="SourceAlpha" type="matrix" values="0 0 0 0 0 0 0 0 0 0 0 0 0 0 0 0 0 0 127 0" result="hardAlpha"/>
<feOffset dy="2"/>
<feGaussianBlur stdDeviation="2"/>
<feComposite in2="hardAlpha" operator="out"/>
<feColorMatrix type="matrix" values="0 0 0 0 0.182083 0 0 0 0 0.243258 0 0 0 0 0.316667 0 0 0 0.16 0"/>
<feBlend mode="normal" in2="BackgroundImageFix" result="effect1_dropShadow_849_23961"/>
<feBlend mode="normal" in="SourceGraphic" in2="effect1_dropShadow_849_23961" result="shape"/>
</filter>
<linearGradient id="paint0_linear_849_23961" x1="16" y1="0" x2="16" y2="32" gradientUnits="userSpaceOnUse">
<stop stop-color="#09D47B"/>
<stop offset="1" stop-color="#07554B"/>
</linearGradient>
<clipPath id="clip0_849_23961">
<rect width="32" height="32" fill="white"/>
</clipPath>
</defs>
</svg>
