<svg width="32" height="32" viewBox="0 0 32 32" fill="none" xmlns="http://www.w3.org/2000/svg">
<g clip-path="url(#clip0_849_23970)">
<path d="M0 16C0 3.2 3.2 0 16 0C28.8 0 32 3.2 32 16C32 28.8 28.8 32 16 32C3.2 32 0 28.8 0 16Z" fill="url(#paint0_linear_849_23970)"/>
<path d="M15.9997 10.8C16.4415 10.8 16.7998 11.1583 16.7998 11.6001V11.9999C16.7998 12.0416 16.8266 12.0793 16.8671 12.089C17.0847 12.1415 17.2863 12.2171 17.4717 12.3163C17.8653 12.5271 18.1687 12.8242 18.3819 13.2075C18.4617 13.3488 18.5273 13.499 18.5778 13.6581C18.7281 14.131 18.3051 14.5447 17.8089 14.5448H17.6299C17.2597 14.5447 16.9925 14.2089 16.7275 13.9504C16.5839 13.8082 16.365 13.7369 16.0713 13.7369C15.8845 13.7369 15.7312 13.7637 15.6117 13.8169C15.4943 13.8677 15.4071 13.9377 15.3506 14.0266C15.2941 14.1154 15.2643 14.2171 15.2621 14.3313C15.2577 14.4252 15.2724 14.5103 15.305 14.5865C15.3398 14.6601 15.3939 14.7274 15.4678 14.7883C15.5417 14.8467 15.6364 14.9002 15.7516 14.9485C15.8669 14.9967 16.0043 15.0399 16.1631 15.078L16.7113 15.2154C17.0811 15.3068 17.3979 15.4275 17.6611 15.5773C17.9243 15.7271 18.1395 15.9035 18.307 16.1067C18.4745 16.3073 18.5978 16.5336 18.6761 16.7851C18.7565 17.0363 18.7976 17.3104 18.7998 17.6073C18.7976 18.1203 18.6879 18.5551 18.4704 18.9107C18.2528 19.2662 17.9414 19.5365 17.5368 19.7219C17.3304 19.8169 17.1024 19.8865 16.8531 19.9326C16.8211 19.9385 16.7998 19.9673 16.7998 19.9999V20.4003C16.7997 20.842 16.4414 21.1997 15.9997 21.1997C15.558 21.1997 15.1997 20.8419 15.1995 20.4003V19.9999C15.1995 19.9487 15.1667 19.9019 15.117 19.8898C14.921 19.842 14.7366 19.779 14.5641 19.6991C14.1334 19.4985 13.7983 19.1898 13.5589 18.7733C13.4382 18.5599 13.3479 18.3161 13.2881 18.0422C13.1843 17.5665 13.5955 17.1659 14.0823 17.1659H14.2959C14.6466 17.1659 14.9047 17.4617 15.0765 17.7675C15.1679 17.93 15.2959 18.0535 15.4613 18.1373C15.6287 18.221 15.8278 18.2629 16.0583 18.2629C16.2519 18.2629 16.4141 18.2347 16.5446 18.1789C16.6751 18.1231 16.774 18.0455 16.8415 17.9465C16.9089 17.8475 16.9441 17.7343 16.9463 17.6073C16.9441 17.4881 16.9099 17.3843 16.8447 17.2955C16.7817 17.204 16.6773 17.1224 16.5316 17.0513C16.3858 16.9777 16.189 16.9091 15.9411 16.8456L15.2751 16.6783C14.6834 16.5284 14.2169 16.2781 13.8753 15.9276C13.5359 15.5746 13.3673 15.0931 13.3695 14.4836C13.3673 13.9885 13.4803 13.5555 13.7087 13.1848C13.9393 12.8115 14.2582 12.5206 14.6651 12.3124C14.8043 12.2415 14.9505 12.1833 15.1037 12.1367C15.1626 12.1189 15.1995 12.0615 15.1995 11.9999V11.6001C15.1995 11.1583 15.5579 10.8001 15.9997 10.8Z" fill="white"/>
<path fill-rule="evenodd" clip-rule="evenodd" d="M15.9997 6.79999C21.0807 6.79999 25.1995 10.9189 25.1995 15.9999C25.1995 21.0809 21.0807 25.1997 15.9997 25.1997C10.9187 25.1997 6.7998 21.0809 6.7998 15.9999C6.79987 10.9189 10.9187 6.80005 15.9997 6.79999ZM15.9997 10.0045C12.6884 10.0045 10.0043 12.6886 10.0043 15.9999C10.0043 19.3112 12.6883 21.9959 15.9997 21.996C19.3111 21.996 21.9958 19.3113 21.9958 15.9999C21.9957 12.6885 19.311 10.0045 15.9997 10.0045Z" fill="white"/>
</g>
<defs>
<linearGradient id="paint0_linear_849_23970" x1="16" y1="0" x2="16" y2="32" gradientUnits="userSpaceOnUse">
<stop stop-color="#09D47B"/>
<stop offset="1" stop-color="#07554B"/>
</linearGradient>
<clipPath id="clip0_849_23970">
<rect width="32" height="32" fill="white"/>
</clipPath>
</defs>
</svg>
