<svg width="32" height="32" viewBox="0 0 32 32" fill="none" xmlns="http://www.w3.org/2000/svg">
<g clip-path="url(#clip0_849_23988)">
<path d="M0 16C0 3.2 3.2 0 16 0C28.8 0 32 3.2 32 16C32 28.8 28.8 32 16 32C3.2 32 0 28.8 0 16Z" fill="url(#paint0_linear_849_23988)"/>
<path d="M15.9998 6.80005C21.0807 6.80018 25.1995 10.9191 25.1995 16C25.1995 21.0809 21.0807 25.1999 15.9998 25.2C10.9189 25.2 6.7998 21.081 6.7998 16C6.7998 10.919 10.9189 6.80005 15.9998 6.80005ZM15.9998 10C12.6861 10 9.9998 12.6863 9.9998 16C9.99987 19.3136 12.6861 22 15.9998 22C19.3135 21.9999 21.9998 19.3136 21.9999 16C21.9999 12.6864 19.3135 10.0001 15.9998 10Z" fill="white"/>
<path d="M25.1998 16.907C25.1725 18.1204 24.7459 19.3101 24.1998 20.4C23.6537 21.4898 22.4809 22.7052 21.1998 23.6L18.7998 21.32C19.5527 20.8742 21.4351 19.8222 21.7865 16.8L25.1998 16.907Z" fill="url(#paint1_linear_849_23988)" fill-opacity="0.24"/>
<path d="M22.3998 24.5952C22.3998 24.6747 22.3851 24.7534 22.3563 24.8268C22.3277 24.9002 22.2856 24.967 22.2326 25.0231C22.1796 25.0793 22.1167 25.1238 22.0474 25.1542C21.9782 25.1845 21.904 25.2 21.8291 25.2H15.9998C15.9998 25.2 15.9998 22.7683 15.9998 22C16.6665 22 17.5998 22 18.408 21.52L18.7679 21.3284C18.8739 21.269 19.0121 21.1984 19.1665 21.2001C19.286 21.2092 19.455 21.2536 19.5519 21.3284L22.2557 24.1969C22.348 24.3065 22.3993 24.4482 22.3998 24.5952Z" fill="white"/>
</g>
<defs>
<linearGradient id="paint0_linear_849_23988" x1="16" y1="0" x2="16" y2="32" gradientUnits="userSpaceOnUse">
<stop stop-color="#3990FF"/>
<stop offset="1" stop-color="#2662FF"/>
</linearGradient>
<linearGradient id="paint1_linear_849_23988" x1="13.6402" y1="22.7789" x2="20.1049" y2="12.5259" gradientUnits="userSpaceOnUse">
<stop stop-color="#2E3E51"/>
<stop offset="0.09" stop-color="#2E3E51" stop-opacity="0.839"/>
<stop offset="0.76" stop-color="#2E3E51" stop-opacity="0.071"/>
<stop offset="0.88" stop-color="#2E3E51" stop-opacity="0.02"/>
<stop offset="1" stop-color="#2E3E51" stop-opacity="0"/>
</linearGradient>
<clipPath id="clip0_849_23988">
<rect width="32" height="32" fill="white"/>
</clipPath>
</defs>
</svg>
