<svg width="32" height="32" viewBox="0 0 32 32" fill="none" xmlns="http://www.w3.org/2000/svg">
<g clip-path="url(#clip0_849_23982)">
<path d="M0 16C0 3.2 3.2 0 16 0C28.8 0 32 3.2 32 16C32 28.8 28.8 32 16 32C3.2 32 0 28.8 0 16Z" fill="url(#paint0_linear_849_23982)"/>
<path d="M15.9997 6.79999C18.1683 6.79999 20.1617 7.55052 21.7344 8.80579C22.1116 9.10692 21.9919 9.68479 21.5414 9.85805L19.3531 10.6999C19.1631 10.773 18.9512 10.7533 18.7707 10.6594C17.9413 10.2279 16.9992 9.98292 15.9997 9.98292C12.6767 9.98299 9.9828 12.6769 9.98274 15.9999C9.98274 19.3229 12.6767 22.0167 15.9997 22.0168C19.3227 22.0168 22.0165 19.3229 22.0165 15.9999C22.0165 15.0003 21.7717 14.0583 21.3401 13.2289C21.2462 13.0483 21.2265 12.8364 21.2996 12.6464L22.1415 10.4581C22.3147 10.0076 22.8926 9.88785 23.1937 10.2651C24.4491 11.8377 25.1995 13.8311 25.1995 15.9999C25.1995 21.0809 21.0807 25.1997 15.9997 25.1997C10.9187 25.1997 6.7998 21.0809 6.7998 15.9999C6.79987 10.9189 10.9187 6.80005 15.9997 6.79999Z" fill="white"/>
<path d="M15.9998 19.2C17.7671 19.2 19.1998 17.7673 19.1998 16C19.1998 14.2327 17.7671 12.8 15.9998 12.8C14.2325 12.8 12.7998 14.2327 12.7998 16C12.7998 17.7673 14.2325 19.2 15.9998 19.2Z" fill="white"/>
</g>
<defs>
<linearGradient id="paint0_linear_849_23982" x1="16" y1="0" x2="16" y2="32" gradientUnits="userSpaceOnUse">
<stop stop-color="#3990FF"/>
<stop offset="1" stop-color="#2662FF"/>
</linearGradient>
<clipPath id="clip0_849_23982">
<rect width="32" height="32" fill="white"/>
</clipPath>
</defs>
</svg>
