<svg width="32" height="32" viewBox="0 0 32 32" fill="none" xmlns="http://www.w3.org/2000/svg">
<g clip-path="url(#clip0_849_23985)">
<path d="M0 16C0 3.2 3.2 0 16 0C28.8 0 32 3.2 32 16C32 28.8 28.8 32 16 32C3.2 32 0 28.8 0 16Z" fill="url(#paint0_linear_849_23985)"/>
<path d="M24.8824 14.279C19.1167 16.6123 13.5032 21.6897 10.4718 25.0853C10.1812 25.4107 9.5995 25.1103 9.71257 24.6889L11.2696 18.8852C11.3492 18.5886 11.252 18.2725 11.0194 18.072L7.10803 14.7002C6.56194 14.2294 6.86836 13.3333 7.5883 13.2953L12.6686 13.028C12.9904 13.011 13.2707 12.8027 13.3796 12.4993L15.2469 7.29753C15.5004 6.59125 16.4992 6.59125 16.7528 7.29753L18.6187 12.4955C18.7283 12.8007 19.0114 13.0096 19.3354 13.0243L24.7434 13.2702C25.2069 13.2913 25.3124 14.1049 24.8824 14.279Z" fill="white"/>
<path d="M20.3833 18.3785C18.9712 19.0511 17.1429 20.5453 16.1196 21.6397C15.9485 21.8226 16.0019 22.1129 16.2205 22.2351L21.4089 25.1345C21.8646 25.3891 22.4058 24.9805 22.2854 24.4724L20.9045 18.6417C20.849 18.4073 20.6008 18.2749 20.3833 18.3785Z" fill="white"/>
</g>
<defs>
<linearGradient id="paint0_linear_849_23985" x1="16" y1="0" x2="16" y2="32" gradientUnits="userSpaceOnUse">
<stop stop-color="#3990FF"/>
<stop offset="1" stop-color="#2662FF"/>
</linearGradient>
<clipPath id="clip0_849_23985">
<rect width="32" height="32" fill="white"/>
</clipPath>
</defs>
</svg>
