<svg width="46" height="46" viewBox="0 0 46 46" fill="none" xmlns="http://www.w3.org/2000/svg">
<path d="M23 0C35.7022 0.000333333 45.9992 10.2977 45.9992 23C45.9992 35.7022 35.7022 45.9997 23 45.9998C10.2978 45.9998 0 35.7023 0 23C0 10.2975 10.2977 0 23 0ZM23 8C14.7158 8 8 14.7157 8 23C8.00017 31.284 14.7158 37.9998 23 37.9998C31.2842 37.9997 38 31.284 38.0002 23C38.0002 14.7158 31.2843 8.00017 23 8Z" fill="white"/>
<path d="M46 25.2675C45.9317 28.301 44.8653 31.2752 43.5 33.9998C42.1347 36.7245 39.2028 39.763 36 41.9998L30 36.2998C31.8823 35.1853 36.5883 32.5553 37.4667 24.9998L46 25.2675Z" fill="url(#paint0_linear_2514_3435)" fill-opacity="0.24"/>
<path d="M39 44.488C39 44.6867 38.9632 44.8835 38.8913 45.067C38.8197 45.2505 38.7145 45.4173 38.582 45.5577C38.4495 45.6982 38.2922 45.8095 38.119 45.8853C37.946 45.9612 37.7605 46 37.5732 45.9998H23C23 45.9998 23 39.9207 23 37.9998C24.6667 37.9998 27 37.9998 29.0205 36.7998L29.9203 36.321C30.1852 36.1723 30.5308 35.9958 30.9167 36.0002C31.2155 36.0228 31.638 36.134 31.8802 36.321L38.6397 43.4922C38.8705 43.7662 38.9987 44.1205 39 44.488Z" fill="white"/>
<defs>
<linearGradient id="paint0_linear_2514_3435" x1="17.101" y1="39.9472" x2="33.2627" y2="14.3147" gradientUnits="userSpaceOnUse">
<stop stop-color="#2E3E51"/>
<stop offset="0.09" stop-color="#2E3E51" stop-opacity="0.839"/>
<stop offset="0.76" stop-color="#2E3E51" stop-opacity="0.071"/>
<stop offset="0.88" stop-color="#2E3E51" stop-opacity="0.02"/>
<stop offset="1" stop-color="#2E3E51" stop-opacity="0"/>
</linearGradient>
</defs>
</svg>
