<svg width="46" height="48" viewBox="0 0 46 48" fill="none" xmlns="http://www.w3.org/2000/svg">
<path d="M45.2063 19.6974C30.7922 25.5307 16.7585 38.224 9.17984 46.713C8.45334 47.5267 6.99917 46.7755 7.28184 45.722L11.1745 31.2129C11.3735 30.4714 11.1303 29.6812 10.5488 29.1799L0.770506 20.7504C-0.594727 19.5734 0.171339 17.333 1.97117 17.2382L14.672 16.5699C15.4765 16.5274 16.1772 16.0065 16.4493 15.2482L21.1177 2.24371C21.7515 0.478009 24.2485 0.478009 24.8823 2.24371L29.5472 15.2385C29.8212 16.0017 30.5288 16.5239 31.3388 16.5607L44.859 17.1754C46.0177 17.228 46.2815 19.2622 45.2063 19.6974Z" fill="white"/>
<path d="M33.9587 29.946C30.4283 31.6277 25.8577 35.363 23.2993 38.099C22.8717 38.5564 23.0052 39.2822 23.5517 39.5875L36.5227 46.836C37.662 47.4727 39.0148 46.451 38.714 45.1809L35.2617 30.6042C35.1228 30.0182 34.5023 29.687 33.9587 29.946Z" fill="white"/>
</svg>
