<svg width="54" height="54" viewBox="0 0 54 54" fill="none" xmlns="http://www.w3.org/2000/svg">
<g filter="url(#filter0_d_2505_587)">
<path d="M26.9997 2C39.702 2 49.9992 12.2973 49.9993 24.9997C49.9993 29.9065 48.4622 34.454 45.844 38.1882L48.8273 41.1715L48.9707 41.3213C50.3888 42.8915 50.3405 45.3143 48.8273 46.8275C47.3143 48.3405 44.8913 48.389 43.3212 46.9707L43.1715 46.8275L40.188 43.844C36.454 46.4623 31.9065 47.9993 26.9997 47.9993C14.2972 47.9992 4 37.7022 4 24.9997C4.00017 12.2973 14.2973 2.00017 26.9997 2ZM26.9997 8.02533C17.6255 8.0255 10.0255 15.6255 10.0253 24.9997C10.0253 34.374 17.6253 41.9738 26.9997 41.974C36.374 41.974 43.9738 34.374 43.9738 24.9997C43.9737 15.6255 36.3738 8.02533 26.9997 8.02533ZM29.1008 27C30.9238 27.0327 32.7062 27.5537 34.2685 28.5103C34.6045 28.7162 34.9277 28.941 35.2368 29.1827C37.3037 30.7973 37.0545 33.918 34.9147 35.4342C34.3567 35.8295 33.7702 36.1848 33.1585 36.4955C31.266 37.4562 29.1842 37.9708 27.0695 37.9993C24.9552 38.0278 22.8615 37.569 20.9448 36.6598C20.3177 36.3623 19.7142 36.0187 19.1398 35.6328C16.975 34.1778 16.6373 31.0858 18.6353 29.4088C18.9863 29.1143 19.3567 28.8417 19.7453 28.595C21.341 27.5827 23.1778 27.0317 25.0578 27H29.1008ZM26.9997 12C28.5908 12 30.1175 12.6327 31.2428 13.7578C32.3677 14.8828 33.0003 16.4083 33.0005 17.9993C33.0005 19.5907 32.3678 21.1173 31.2428 22.2425C30.1175 23.3677 28.5908 24.0003 26.9997 24.0003C25.4085 24.0002 23.8832 23.3675 22.758 22.2425C21.6328 21.1173 21.0002 19.5907 21.0002 17.9993C21.0005 16.4083 21.633 14.8828 22.758 13.7578C23.8832 12.6328 25.4085 12.0002 26.9997 12Z" fill="white"/>
</g>
<defs>
<filter id="filter0_d_2505_587" x="0" y="0" width="53.9994" height="53.9995" filterUnits="userSpaceOnUse" color-interpolation-filters="sRGB">
<feFlood flood-opacity="0" result="BackgroundImageFix"/>
<feColorMatrix in="SourceAlpha" type="matrix" values="0 0 0 0 0 0 0 0 0 0 0 0 0 0 0 0 0 0 127 0" result="hardAlpha"/>
<feOffset dy="2"/>
<feGaussianBlur stdDeviation="2"/>
<feComposite in2="hardAlpha" operator="out"/>
<feColorMatrix type="matrix" values="0 0 0 0 0.182083 0 0 0 0 0.243258 0 0 0 0 0.316667 0 0 0 0.16 0"/>
<feBlend mode="normal" in2="BackgroundImageFix" result="effect1_dropShadow_2505_587"/>
<feBlend mode="normal" in="SourceGraphic" in2="effect1_dropShadow_2505_587" result="shape"/>
</filter>
</defs>
</svg>
