<svg width="46" height="48" viewBox="0 0 46 48" fill="none" xmlns="http://www.w3.org/2000/svg">
<path fill-rule="evenodd" clip-rule="evenodd" d="M23.0001 26.691C23.892 26.691 24.615 27.414 24.615 28.3058C24.615 30.7908 25.518 35.805 31.7511 38.6818C33.0583 39.2852 34.6491 39.4213 36.012 39.3708C36.6766 39.3463 37.2498 39.2788 37.6536 39.2182C37.8548 39.1878 38.012 39.1595 38.115 39.1397C38.1665 39.1297 38.2043 39.1218 38.2273 39.117L38.2503 39.1122C39.1193 38.9135 39.9853 39.4567 40.1845 40.3258C40.3835 41.1952 39.8401 42.0613 38.9708 42.2603L38.6103 40.6863C38.9708 42.2603 38.9711 42.2603 38.9708 42.2603L38.9668 42.2613L38.9613 42.2625L38.9458 42.266L38.8961 42.2767C38.8552 42.2853 38.7983 42.297 38.727 42.3108C38.5845 42.3383 38.3833 42.3743 38.1342 42.4118C37.6372 42.4867 36.9412 42.5683 36.1315 42.5983C34.5462 42.657 32.369 42.5242 30.3976 41.6142C22.6355 38.0317 21.3853 31.5625 21.3853 28.3058C21.3853 27.414 22.1083 26.691 23.0001 26.691Z" fill="white"/>
<path fill-rule="evenodd" clip-rule="evenodd" d="M14.8168 9.06318C18.9061 7.27385 27.758 5.76752 35.2728 11.4037C42.6805 16.9593 44.1948 24.9237 43.9902 28.4005C43.9895 28.4137 43.9885 28.4268 43.9875 28.4398C43.8783 29.7493 43.37 31.6697 42.1535 33.3062C40.8891 35.0072 38.8623 36.3798 35.9188 36.38C32.9163 36.38 30.9408 35.0013 29.7171 33.2778C28.5553 31.6413 28.1001 29.7437 27.876 28.6225C27.3963 26.2248 26.4841 24.9873 25.642 24.3322C24.7845 23.6652 23.8176 23.4612 23 23.4612C21.0165 23.4612 19.8473 24.3498 19.1261 25.4328C18.3481 26.6013 18.1056 27.9967 18.1523 28.7435C18.4051 32.7872 19.5326 35.8583 21.2278 38.28C22.9308 40.7128 25.2707 42.5812 28.0795 44.1132C28.8625 44.5403 29.151 45.5212 28.724 46.3042C28.2968 47.0872 27.316 47.3757 26.533 46.9485C23.4208 45.251 20.647 43.0822 18.582 40.1322C16.5091 37.171 15.2145 33.5137 14.929 28.9448C14.841 27.5385 15.2445 25.435 16.438 23.6428C17.6881 21.7652 19.816 20.2315 23 20.2315C24.3355 20.2315 26.0602 20.5658 27.6248 21.7828C29.2048 23.0118 30.4458 25.004 31.0428 27.989C31.2493 29.021 31.6016 30.3532 32.3506 31.4082C33.0378 32.376 34.0766 33.1503 35.9186 33.1503C37.7121 33.1502 38.8253 32.3698 39.5615 31.3793C40.3396 30.3325 40.6933 29.035 40.7673 28.1907C40.9142 25.5525 39.6912 18.7545 33.335 13.9875C27.07 9.28868 19.5578 10.514 16.1113 12.022C13.0923 13.343 7.42331 16.4565 5.74365 24.8547C5.41181 26.5135 4.75065 30.8168 6.73615 35.7803C7.06731 36.6085 6.66448 37.5482 5.83648 37.8795C5.00831 38.2107 4.06865 37.8078 3.73731 36.9798C1.41648 31.1778 2.19065 26.151 2.57665 24.2212C4.55748 14.3175 11.3765 10.5683 14.8168 9.06318Z" fill="white"/>
<path fill-rule="evenodd" clip-rule="evenodd" d="M14.2038 16.6655C17.1898 14.4903 20.6621 13.7722 23.0001 13.7722C23.0448 13.7722 23.0896 13.774 23.1341 13.7778C28.762 14.2467 32.4181 16.724 34.635 19.7308C36.8068 22.677 37.5336 26.0405 37.5336 28.3058C37.5336 29.1977 36.8106 29.9207 35.9188 29.9207C35.027 29.9207 34.304 29.1977 34.304 28.3058C34.304 26.6237 33.739 23.9583 32.0353 21.6473C30.3845 19.408 27.6005 17.4082 22.9345 17.0022C21.144 17.016 18.4111 17.5963 16.1055 19.276C13.8476 20.9208 11.8986 23.6862 11.6961 28.3402C11.6961 30.5648 11.7093 36.3862 16.7441 42.9313C17.2878 43.6383 17.1556 44.6522 16.4488 45.1958C15.7418 45.7397 14.728 45.6075 14.1841 44.9005C8.47948 37.4843 8.46648 30.7723 8.46648 28.3058C8.46648 28.2833 8.46698 28.261 8.46781 28.2385C8.70381 22.5773 11.147 18.8925 14.2038 16.6655Z" fill="white"/>
<path fill-rule="evenodd" clip-rule="evenodd" d="M10.0046 7.93618C6.67081 10.0518 4.58214 12.4397 3.93015 13.5265C3.47131 14.2913 2.47931 14.5393 1.71465 14.0805C0.949812 13.6217 0.701813 12.6297 1.16065 11.865C2.12331 10.2604 4.61015 7.53452 8.27398 5.20935C11.9736 2.86152 16.9795 0.853682 23.0001 0.853516C34.0088 0.853516 41.32 7.15785 44.7466 11.7268C45.2818 12.4403 45.1371 13.4525 44.4236 13.9877C43.7101 14.5228 42.698 14.3782 42.1628 13.6647C39.1301 9.62102 32.6793 4.08318 23.0001 4.08335C17.7166 4.08335 13.3026 5.84318 10.0046 7.93618Z" fill="white"/>
</svg>
