<svg width="46" height="46" viewBox="0 0 46 46" fill="none" xmlns="http://www.w3.org/2000/svg">
<path d="M34.0003 0C40.6278 0 46.0003 5.37267 46.0003 12V34C46.0003 40.6275 40.6278 46 34.0003 46H12.0003C5.37297 46 0.000305176 40.6275 0.000305176 34V12C0.000305176 5.37267 5.37297 0 12.0003 0H34.0003ZM14.5003 4C13.672 4.00017 13.0003 4.67167 13.0003 5.5C13.0003 6.32833 13.672 7 14.5003 7H31.5003C32.3288 7 33.0003 6.3285 33.0003 5.5C33.0003 4.67167 32.3288 4 31.5003 4H14.5003Z" fill="white"/>
<path d="M24.1933 26.7886C28.8611 26.7888 32.8174 29.8231 34.2029 34.0268C34.4856 34.8839 34.4509 35.8818 33.7978 36.5044C33.2609 37.0159 32.5348 37.3306 31.7343 37.3306H14.2568C13.4561 37.3306 12.7301 37.0159 12.1933 36.5044C11.5399 35.8818 11.5054 34.8839 11.7879 34.0268C13.1738 29.8229 17.1306 26.7886 21.7988 26.7886H24.1933ZM22.9999 13.3716C26.1756 13.3716 28.7499 15.9459 28.7499 19.1216C28.7499 22.2973 26.1756 24.8716 22.9999 24.8716C19.8243 24.8714 17.2499 22.2971 17.2499 19.1216C17.2499 15.9459 19.8243 13.3717 22.9999 13.3716Z" fill="url(#paint0_linear_2514_593)"/>
<defs>
<linearGradient id="paint0_linear_2514_593" x1="23.0003" y1="0" x2="23.0003" y2="46" gradientUnits="userSpaceOnUse">
<stop stop-color="#09D47B"/>
<stop offset="1" stop-color="#07554B"/>
</linearGradient>
</defs>
</svg>
