<svg width="48" height="47" viewBox="0 0 48 47" fill="none" xmlns="http://www.w3.org/2000/svg">
<path d="M40.4063 36.8073C42.4198 36.8073 44.0521 35.175 44.0521 33.1615C44.0521 31.1479 42.4198 29.5156 40.4063 29.5156C38.3927 29.5156 36.7604 31.1479 36.7604 33.1615C36.7604 35.175 38.3927 36.8073 40.4063 36.8073Z" fill="white"/>
<path d="M44.8372 37.7456C43.6885 38.8562 42.1264 39.5416 40.4062 39.5416C38.6861 39.5416 37.124 38.8562 35.9753 37.7456C34.5242 38.7289 33.5703 40.391 33.5703 42.276V46.8333H45.875C46.6301 46.8333 47.2422 46.2212 47.2422 45.4661V42.276C47.2422 40.391 46.2883 38.7289 44.8372 37.7456Z" fill="white"/>
<path d="M24 36.8073C26.0136 36.8073 27.6459 35.175 27.6459 33.1615C27.6459 31.1479 26.0136 29.5156 24 29.5156C21.9865 29.5156 20.3542 31.1479 20.3542 33.1615C20.3542 35.175 21.9865 36.8073 24 36.8073Z" fill="white"/>
<path d="M28.431 37.7456C27.2823 38.8562 25.7201 39.5416 24 39.5416C22.2799 39.5416 20.7177 38.8562 19.569 37.7456C18.1179 38.7289 17.1641 40.391 17.1641 42.276V46.8333H30.8359V42.276C30.8359 40.391 29.8821 38.7289 28.431 37.7456Z" fill="white"/>
<path d="M7.59377 36.8073C9.60731 36.8073 11.2396 35.175 11.2396 33.1615C11.2396 31.1479 9.60731 29.5156 7.59377 29.5156C5.58023 29.5156 3.94794 31.1479 3.94794 33.1615C3.94794 35.175 5.58023 36.8073 7.59377 36.8073Z" fill="white"/>
<path d="M12.0247 37.7456C10.876 38.8562 9.31385 39.5416 7.59375 39.5416C5.87365 39.5416 4.3115 38.8562 3.16279 37.7456C1.71165 38.7289 0.757812 40.391 0.757812 42.276V45.4661C0.757812 46.2212 1.36995 46.8333 2.125 46.8333H14.4297V42.276C14.4297 40.391 13.4758 38.7289 12.0247 37.7456Z" fill="white"/>
<path d="M24 7.45817C26.0136 7.45817 27.6459 5.82588 27.6459 3.81234C27.6459 1.7988 26.0136 0.166504 24 0.166504C21.9865 0.166504 20.3542 1.7988 20.3542 3.81234C20.3542 5.82588 21.9865 7.45817 24 7.45817Z" fill="white"/>
<path d="M18.5312 17.4842H29.4688C30.2238 17.4842 30.8359 16.872 30.8359 16.117V12.9269C30.8359 11.0419 29.8821 9.37977 28.431 8.39648C27.2823 9.5071 25.7201 10.1925 24 10.1925C22.2799 10.1925 20.7177 9.5071 19.569 8.39648C18.1179 9.37977 17.1641 11.0419 17.1641 12.9269V16.117C17.1641 16.872 17.7762 17.4842 18.5312 17.4842Z" fill="white"/>
<path d="M8.96094 26.9303V24.8672H39.0391V26.9303C39.4798 26.8337 39.9369 26.7813 40.4062 26.7813C40.8756 26.7813 41.3327 26.8337 41.7734 26.9303V23.5C41.7734 22.7449 41.1613 22.1328 40.4062 22.1328H25.3672V20.2188H22.6328V22.1328H7.59375C6.8387 22.1328 6.22656 22.7449 6.22656 23.5V26.9303C6.66734 26.8337 7.12444 26.7813 7.59375 26.7813C8.06306 26.7813 8.52016 26.8337 8.96094 26.9303Z" fill="white"/>
</svg>
