<svg width="46" height="46" viewBox="0 0 46 46" fill="none" xmlns="http://www.w3.org/2000/svg">
<path d="M39 2.01364V10.2401L24 16.0001C24 7.39197 31.8302 2.65931 37.0973 0.648973C38.0353 0.290973 39 1.00947 39 2.01364Z" fill="white" fill-opacity="0.42"/>
<path d="M5.99983 2.01364V10.2401L20.9998 16.0001C20.9998 7.39197 13.1697 2.65931 7.9025 0.648973C6.9645 0.290973 5.99983 1.00947 5.99983 2.01364Z" fill="white" fill-opacity="0.42"/>
<path d="M20.2873 45.36L2.75617 37.9906C1.08617 37.2886 0 35.6538 0 33.8423V10.49C0 8.69764 1.83017 7.48764 3.47917 8.18964L20.6497 15.4996C22.1513 16.139 23.8485 16.139 25.3502 15.4996L42.5207 8.18964C44.1697 7.48764 46 8.69764 46 10.49V33.8423C46 35.6538 44.9137 37.2886 43.2437 37.9906L25.7125 45.36C23.9777 46.0891 22.0222 46.0891 20.2873 45.36Z" fill="white"/>
</svg>
