<svg width="44" height="46" viewBox="0 0 44 46" fill="none" xmlns="http://www.w3.org/2000/svg">
<path d="M21.392 21.4932C20.1735 21.3607 18.9787 21.0637 17.84 20.6105C16.3812 20.1406 14.4853 19.4912 12.5012 18.7702C10.6017 18.0804 8.79317 17.3932 7.40867 16.8349C6.68033 16.5407 6.09283 16.2935 5.67267 16.0989C5.40983 15.9847 5.15483 15.8531 4.9095 15.7051C4.60183 15.5414 4.3215 15.3309 4.0785 15.081C3.8435 14.8592 3.53717 14.5537 3.16967 14.1712C2.55867 13.5357 1.9835 12.9069 1.959 12.8807C1.71183 12.581 1.589 12.198 1.61617 11.8105C1.64317 11.423 1.818 11.0609 2.1045 10.7985C2.391 10.5364 2.76733 10.394 3.15567 10.4012C3.544 10.4085 3.91467 10.5645 4.19133 10.8372C4.92917 11.6447 5.85317 12.609 6.24033 12.9606C6.36183 13.017 6.47533 13.0894 6.57783 13.1757C7.1315 13.4755 9.69467 14.5387 13.8435 16.0369C17.731 17.4402 20.0393 18.1499 20.9925 18.3802L36.9055 3.96922C37.2033 3.69955 37.5962 3.55922 37.9975 3.57905C38.3988 3.59905 38.7758 3.77755 39.0457 4.07538C39.3153 4.37338 39.4557 4.76622 39.4358 5.16755C39.4158 5.56888 39.2373 5.94588 38.9395 6.21572L22.5847 21.0307C22.427 21.1837 22.2402 21.3034 22.0352 21.3829C21.8303 21.4624 21.6117 21.4999 21.392 21.4932Z" fill="white"/>
<path d="M6.73417 18.9434C9.3485 18.1937 10.86 15.4669 10.1105 12.8526C9.36084 10.2384 6.63383 8.72672 4.01967 9.47638C1.40533 10.226 -0.106165 12.9529 0.643335 15.5672C1.393 18.1814 4.12 19.693 6.73417 18.9434Z" fill="white"/>
<path d="M22.6447 24.2464C25.259 23.4967 26.7705 20.7697 26.0208 18.1555C25.2712 15.5412 22.5443 14.0297 19.93 14.7794C17.3158 15.5289 15.8042 18.2559 16.5538 20.87C17.3035 23.4844 20.0305 24.9959 22.6447 24.2464Z" fill="white"/>
<path d="M39.3112 9.82405C41.9255 9.07455 43.437 6.34755 42.6875 3.73322C41.9378 1.11905 39.2108 -0.392534 36.5967 0.35705C33.9823 1.10672 32.4708 3.83372 33.2205 6.44788C33.97 9.06222 36.697 10.5737 39.3112 9.82405Z" fill="white"/>
<path d="M10.6495 30.8474C10.6495 27.9185 8.27533 25.5442 5.3465 25.5442C2.41767 25.5442 0.043335 27.9185 0.043335 30.8474V40.6969C0.043335 43.6255 2.41767 45.9999 5.3465 45.9999C8.27533 45.9999 10.6495 43.6255 10.6495 40.6969V30.8474Z" fill="white"/>
<path d="M27.3173 33.1202C27.3173 30.1914 24.943 27.8172 22.0142 27.8172C19.0855 27.8172 16.7112 30.1914 16.7112 33.1202V40.6969C16.7112 43.6257 19.0855 46 22.0142 46C24.943 46 27.3173 43.6257 27.3173 40.6969V33.1202Z" fill="white"/>
<path d="M43.9838 21.7564C43.9838 18.8277 41.6097 16.4534 38.6808 16.4534C35.752 16.4534 33.3778 18.8277 33.3778 21.7564V40.6969C33.3778 43.6257 35.752 45.9999 38.6808 45.9999C41.6097 45.9999 43.9838 43.6257 43.9838 40.6969V21.7564Z" fill="white"/>
</svg>
