<svg width="32" height="32" viewBox="0 0 32 32" fill="none" xmlns="http://www.w3.org/2000/svg">
<g clip-path="url(#clip0_849_23973)">
<path d="M0 16C0 3.2 3.2 0 16 0C28.8 0 32 3.2 32 16C32 28.8 28.8 32 16 32C3.2 32 0 28.8 0 16Z" fill="url(#paint0_linear_849_23973)"/>
<path d="M22.3998 7.60541V10.896L16.3998 13.2C16.3998 9.75674 19.5319 7.86367 21.6387 7.05954C22.0139 6.91634 22.3998 7.20374 22.3998 7.60541Z" fill="white" fill-opacity="0.42"/>
<path d="M9.19974 7.60541V10.896L15.1997 13.2C15.1997 9.75674 12.0677 7.86367 9.9608 7.05954C9.5856 6.91634 9.19974 7.20374 9.19974 7.60541Z" fill="white" fill-opacity="0.42"/>
<path d="M14.9147 24.9439L7.90227 21.9962C7.23427 21.7154 6.7998 21.0615 6.7998 20.3369V10.9959C6.7998 10.279 7.53187 9.79501 8.19147 10.0758L15.0597 12.9998C15.6603 13.2555 16.3392 13.2555 16.9399 12.9998L23.8081 10.0758C24.4677 9.79501 25.1998 10.279 25.1998 10.9959V20.3369C25.1998 21.0615 24.7653 21.7154 24.0973 21.9962L17.0848 24.9439C16.3909 25.2356 15.6087 25.2356 14.9147 24.9439Z" fill="white"/>
</g>
<defs>
<linearGradient id="paint0_linear_849_23973" x1="16" y1="0" x2="16" y2="32" gradientUnits="userSpaceOnUse">
<stop stop-color="#09D47B"/>
<stop offset="1" stop-color="#07554B"/>
</linearGradient>
<clipPath id="clip0_849_23973">
<rect width="32" height="32" fill="white"/>
</clipPath>
</defs>
</svg>
