<svg width="32" height="32" viewBox="0 0 32 32" fill="none" xmlns="http://www.w3.org/2000/svg">
<g clip-path="url(#clip0_849_23964)">
<path d="M0 16C0 3.2 3.2 0 16 0C28.8 0 32 3.2 32 16C32 28.8 28.8 32 16 32C3.2 32 0 28.8 0 16Z" fill="url(#paint0_linear_849_23964)"/>
<path d="M20.3998 6.79996C23.0508 6.79996 25.1998 8.94902 25.1998 11.6V20.4C25.1998 23.051 23.0508 25.2 20.3998 25.2H11.5998C8.94887 25.2 6.7998 23.051 6.7998 20.4V11.6C6.7998 8.94902 8.94887 6.79996 11.5998 6.79996H20.3998ZM12.5998 8.39996C12.2685 8.40002 11.9998 8.66862 11.9998 8.99996C11.9998 9.33129 12.2685 9.59996 12.5998 9.59996H19.3998C19.7312 9.59996 19.9998 9.33136 19.9998 8.99996C19.9998 8.66862 19.7312 8.39996 19.3998 8.39996H12.5998Z" fill="white"/>
<path d="M16.477 17.5154C18.3441 17.5155 19.9267 18.7292 20.4809 20.4107C20.5939 20.7535 20.5801 21.1527 20.3188 21.4017C20.1041 21.6063 19.8136 21.7322 19.4934 21.7322H12.5024C12.1821 21.7322 11.8917 21.6063 11.677 21.4017C11.4157 21.1527 11.4019 20.7535 11.5149 20.4107C12.0692 18.7291 13.6519 17.5154 15.5192 17.5154H16.477ZM15.9997 12.1486C17.2699 12.1486 18.2997 13.1783 18.2997 14.4486C18.2997 15.7189 17.2699 16.7486 15.9997 16.7486C14.7294 16.7485 13.6997 15.7188 13.6997 14.4486C13.6997 13.1783 14.7294 12.1487 15.9997 12.1486Z" fill="url(#paint1_linear_849_23964)"/>
</g>
<defs>
<linearGradient id="paint0_linear_849_23964" x1="16" y1="0" x2="16" y2="32" gradientUnits="userSpaceOnUse">
<stop stop-color="#09D47B"/>
<stop offset="1" stop-color="#07554B"/>
</linearGradient>
<linearGradient id="paint1_linear_849_23964" x1="15.9998" y1="6.79996" x2="15.9998" y2="25.2" gradientUnits="userSpaceOnUse">
<stop stop-color="#09D47B"/>
<stop offset="1" stop-color="#07554B"/>
</linearGradient>
<clipPath id="clip0_849_23964">
<rect width="32" height="32" fill="white"/>
</clipPath>
</defs>
</svg>
