<svg width="160" height="46" viewBox="0 0 160 46" fill="none" xmlns="http://www.w3.org/2000/svg">
<path d="M16.6786 37.1713H20.2939V42.6315C20.2939 43.2619 20.1564 43.7423 19.8881 44.0591C19.6198 44.3727 19.2342 44.5261 18.7043 44.5261C17.9027 44.5261 17.2521 44.1592 16.7189 43.3987L16.625 43.2653L15.6289 44.4294L15.6826 44.5094C16.0079 44.9797 16.4439 45.35 16.9738 45.6101C17.5036 45.867 18.0838 46.0004 18.7009 46.0004C19.7607 46.0004 20.579 45.7069 21.129 45.1298C21.679 44.5528 21.9574 43.6922 21.9574 42.5648V35.687H16.6753V37.1746L16.6786 37.1713Z" fill="#014D40"/>
<path d="M36.7712 41.4974H41.8454V40.0264H36.7712V37.1846H42.4692V35.6836H35.0742V45.997H42.6704V44.496H36.7712V41.4974Z" fill="#014D40"/>
<path d="M64.2511 43.6421L61.5514 35.6836H60.0422L57.2854 43.5987L54.6427 35.6836H52.8887L56.3262 45.9136L56.3564 45.997H58.0836L60.7532 38.2219L63.3959 45.9136L63.4261 45.997H65.1231L68.5908 35.6836H66.9509L64.2511 43.6421Z" fill="#014D40"/>
<path d="M80.5075 41.4974H85.5817V40.0264H80.5075V37.1846H86.2022V35.6836H78.8105V45.997H86.4034V44.496H80.5075V41.4974Z" fill="#014D40"/>
<path d="M101.133 44.496V35.6836H99.4355V45.997H106.613V44.496H101.133Z" fill="#014D40"/>
<path d="M123.143 42.5548C123.803 42.2946 124.327 41.8977 124.695 41.374C125.095 40.8103 125.296 40.1166 125.296 39.3194C125.296 38.192 124.9 37.2947 124.122 36.651C123.351 36.0106 122.281 35.687 120.949 35.687H116.878V46.0004H118.575V42.9384H120.949C121.094 42.9384 121.288 42.9317 121.523 42.9151L123.703 46.0004H125.588L123.143 42.5581V42.5548ZM123.602 39.316C123.602 40.0032 123.374 40.5335 122.925 40.9004C122.469 41.274 121.791 41.4608 120.909 41.4608H118.578V37.1813H120.909C121.791 37.1813 122.469 37.3681 122.925 37.735C123.374 38.0952 123.602 38.6289 123.602 39.3127V39.316Z" fill="#014D40"/>
<path d="M142.645 35.6836L139.462 40.8736L136.296 35.6836H134.455L138.57 42.398V45.997H140.254V42.428L144.372 35.6836H142.645Z" fill="#014D40"/>
<path d="M12.7442 11.7306C8.17305 10.0628 3.44764 8.33504 3.44764 4.85944C3.44764 2.65468 6.13733 1.50059 8.79684 1.50059C14.297 1.50059 17.0303 3.50856 19.2437 9.17225L19.2974 9.30567L20.1693 9.1489V2.45455L19.9614 2.11099L19.9178 2.08764C17.3925 0.743431 13.9213 0.0629883 9.59838 0.0629883C3.59185 0.0629883 0 3.4652 0 6.75067C0 11.1769 5.18487 13.0448 10.1987 14.8559C14.5284 16.4203 18.6199 17.8946 18.6199 20.7665C18.6199 23.6383 15.4674 24.7924 12.3417 24.7924C7.09314 24.7924 3.93393 22.6277 1.07319 17.0774L1.00947 16.954L0.181102 17.1474H0.177747L0 17.1875V23.5549L0.181102 23.8551L0.372264 24.1753L0.412508 24.1987C2.5153 25.3528 7.29772 26.2267 11.5402 26.2267C15.7827 26.2267 21.9401 24.212 21.9401 18.6618C21.9401 15.0861 17.4729 13.455 12.7442 11.7272V11.7306Z" fill="#014D40"/>
<path d="M49.1627 18.5451C47.8346 21.5004 44.786 24.9526 40.567 24.9526H35.248C33.5712 24.9526 32.6623 24.6491 32.6623 23.0547V13.6352H39.4435C40.9158 13.6352 43.0253 15.2196 43.0253 16.3237V16.5004H43.9979V9.49255H43.0253V9.66933C43.0253 10.7767 40.9158 12.3577 39.4435 12.3577H32.6623V3.26516C32.6623 2.12776 33.1519 1.36726 35.5499 1.36726H40.178C44.226 1.36726 46.6407 4.85286 47.952 7.77476L48.0157 7.91819L48.9044 7.63467L47.298 0.399964L46.8989 0.0864258H25.5088V1.04372H25.6865C26.9844 1.04372 28.5339 1.4273 28.5339 3.26516V23.0547C28.5339 24.8892 26.9878 25.2761 25.6865 25.2761H25.5088V26.2334H47.2812L47.6669 25.9599L50.1185 18.7285L49.2297 18.3917L49.1627 18.5418V18.5451Z" fill="#014D40"/>
<path d="M81.2376 1.04372H81.4153V0.0864258H73.8828V1.04372H74.0606C74.9728 1.04372 75.6435 1.25385 75.9051 1.61742C76.1064 1.90094 76.1064 2.32121 75.9051 2.86824L68.5504 20.4764L60.7899 3.31853C60.4612 2.6114 60.4176 2.0377 60.6624 1.66412C60.9207 1.27053 61.531 1.04372 62.3359 1.04372H62.5137V0.0864258H51.9092V1.04372H52.0869C53.4385 1.04372 55.226 1.66078 56.1852 3.38524L66.243 25.9933L66.6153 26.2301H67.4135L67.7891 25.9833L77.3975 3.04168C78.2695 1.30055 80.1811 1.04038 81.2443 1.04038H81.2376V1.04372Z" fill="#014D40"/>
<path d="M99.2737 22.8245L89.132 0.323249L88.7631 0.0864258H88.0085L87.6295 0.343261L78.883 23.1448C78.0077 25.066 75.9049 25.2728 75.043 25.2728H74.8652V26.2301H82.3977V25.2728H82.22C81.3078 25.2728 80.6202 25.056 80.3318 24.6758C80.1239 24.4022 80.0971 24.0053 80.2513 23.5083L82.1663 18.5284H92.6367L94.783 23.1381C95.0212 23.8085 95.0145 24.3289 94.7562 24.6824C94.4779 25.0627 93.8977 25.2728 93.1196 25.2728H92.9418V26.2301H103.546V25.2728H103.369C102.03 25.2728 100.156 24.6291 99.2703 22.8212H99.2737V22.8245ZM82.6627 17.2509L86.932 6.06031L92.0665 17.2509H82.6627Z" fill="#014D40"/>
<path d="M146.948 0C139.261 0 133.892 5.39351 133.892 13.1152C133.892 20.8369 139.261 26.2304 146.948 26.2304C154.634 26.2304 160 20.8369 160 13.1152C160 5.39351 154.631 0 146.948 0ZM148.135 24.656C142.33 24.656 138.114 19.3893 138.114 12.1279C138.114 7.31476 139.442 1.57436 145.764 1.57436C151.546 1.57436 155.745 6.84111 155.745 14.0992C155.745 18.9123 154.423 24.6527 148.135 24.6527V24.656Z" fill="#014D40"/>
<path d="M120.473 14.5562H120.651C121.932 14.5562 123.462 14.9297 123.462 16.7142V22.6981C122.023 23.3652 120.376 23.6788 118.293 23.6788C114.869 23.6788 111.951 22.1845 110.073 19.476L110.057 19.4527C109.269 18.3053 108.695 16.9744 108.35 15.5001C107.511 12.3948 107.961 9.75304 108.487 8.07528C108.682 7.27142 109.057 6.41753 109.577 5.60367L109.631 5.52362C110.077 4.83984 110.617 4.19942 111.143 3.72578C112.022 2.9386 113.977 1.61775 117.217 1.61775C117.867 1.61775 118.545 1.67111 119.226 1.78118C119.732 1.87791 120.178 1.99132 120.584 2.12808C123.74 3.28216 125.621 6.45089 126.463 8.23538C126.601 8.53891 126.735 8.85245 126.869 9.18267L126.923 9.31609L127.442 9.22603V2.32821L127.432 2.31486L127.211 1.93795C124.639 0.707153 121.178 0.0800781 116.905 0.0800781C115.275 0.0800781 113.749 0.316898 112.371 0.790539L112.243 0.833902L111.941 0.943972C106.834 2.76516 103.785 7.3348 103.785 13.1886C103.785 20.8769 109.128 26.2438 116.781 26.2438C119.598 26.2438 122.19 25.5033 124.263 24.1157C124.454 24.009 124.592 24.0023 124.702 24.0023C125.353 24.0023 126.071 24.7661 126.534 25.9436L126.587 26.0803L127.456 25.9236V16.7309C127.456 14.9164 128.163 14.5728 129.465 14.5728H129.642V13.6322H120.48V14.5728L120.473 14.5562Z" fill="#014D40"/>
</svg>
