<svg width="160" height="49" viewBox="0 0 160 49" fill="none" xmlns="http://www.w3.org/2000/svg">
<path d="M37.834 24.2833C37.8327 24.1276 37.8299 23.9719 37.8258 23.8176C37.823 23.7273 37.8175 23.6383 37.8133 23.548C37.8064 23.409 37.7996 23.27 37.7899 23.131C37.783 23.0365 37.7747 22.942 37.7664 22.8488C37.7554 22.7154 37.743 22.5833 37.7292 22.4513C37.7196 22.3554 37.7085 22.2609 37.6961 22.165C37.6809 22.0343 37.663 21.905 37.6451 21.7758C37.6313 21.6812 37.6175 21.5867 37.6023 21.4922C37.5816 21.3629 37.5596 21.2337 37.5361 21.1044C37.5196 21.0127 37.503 20.9209 37.4851 20.8292C37.4589 20.6971 37.4313 20.5665 37.4037 20.4358C37.3844 20.3482 37.3665 20.2621 37.3472 20.1745C37.3417 20.1481 37.3361 20.1203 37.3292 20.0939C37.3237 20.0716 37.3168 20.0508 37.3113 20.0299C37.3113 20.0272 37.3099 20.023 37.3086 20.0202C37.1748 19.46 36.6783 19.0653 36.1073 19.0653H30.1699C29.4499 17.4807 28.4031 16.0226 27.0487 14.8036C25.3841 13.2524 23.5152 12.0778 21.4892 11.1591C19.6149 10.3098 17.8661 10.0304 16.3241 8.6418C15.9931 8.34295 15.6773 7.94959 15.4097 7.47143C15.5476 7.43807 15.6856 7.4061 15.8235 7.37691C15.8345 7.37413 15.8442 7.37274 15.8552 7.36996C15.9821 7.34355 16.1104 7.31853 16.2372 7.2949C16.2579 7.29073 16.2772 7.28795 16.2979 7.28378C16.4165 7.26293 16.5352 7.24347 16.6538 7.22401C16.6813 7.21984 16.7103 7.21568 16.7379 7.21151C16.8482 7.19483 16.9599 7.17954 17.0717 7.16564L17.1751 7.15312C17.2799 7.14061 17.3861 7.1295 17.4923 7.11977C17.5323 7.1156 17.5723 7.11143 17.6123 7.10865C17.7144 7.10031 17.8164 7.09197 17.9199 7.08502C17.9626 7.08224 18.0054 7.07807 18.0481 7.07668C18.1529 7.07112 18.2578 7.06695 18.3626 7.06278C18.4026 7.06278 18.4426 7.05861 18.4826 7.05722C18.6274 7.05305 18.7722 7.05027 18.917 7.05027C19.1418 7.05027 19.3653 7.05722 19.5887 7.06695C20.5927 7.11699 21.572 7.27961 22.5167 7.54093C22.3347 7.86341 22.1098 8.17337 21.834 8.40689C21.5416 8.65431 21.5071 9.09354 21.7692 9.37293C22.0243 9.64537 22.4726 9.58838 22.7112 9.37571C22.9401 9.17138 23.3553 8.64597 23.6876 7.92179C26.264 8.88922 28.5383 10.6156 30.305 12.8729C31.2773 14.1156 33.0551 14.3546 34.3378 13.4428C34.2426 13.308 34.1447 13.1745 34.0454 13.0425C34.0192 13.0064 33.9916 12.9716 33.9654 12.9355C33.8799 12.8229 33.7944 12.7131 33.7075 12.6019C33.6882 12.5782 33.6702 12.5546 33.6509 12.5296C33.5489 12.4017 33.4454 12.2752 33.3406 12.1515C33.3227 12.1307 33.3048 12.1084 33.2855 12.0876C33.1986 11.9875 33.1131 11.886 33.0234 11.7873C32.9862 11.7456 32.9503 11.7039 32.9131 11.6636C32.811 11.5496 32.7076 11.4371 32.6027 11.3272C32.5945 11.3189 32.5862 11.3092 32.5779 11.3008C32.4662 11.1841 32.3531 11.0673 32.2386 10.9533C32.2028 10.9186 32.1683 10.8825 32.1324 10.8477C32.0442 10.7615 31.9559 10.6753 31.8663 10.5906C31.8332 10.56 31.8001 10.528 31.767 10.4974C31.6511 10.389 31.5325 10.282 31.4139 10.1763C31.3822 10.1472 31.3491 10.1194 31.316 10.0916C31.2236 10.0109 31.1312 9.9317 31.0387 9.85248C30.996 9.81634 30.9532 9.7802 30.9105 9.74545C30.8084 9.66066 30.705 9.57726 30.6002 9.49386C30.574 9.47301 30.5491 9.45355 30.5243 9.4327C30.4029 9.33679 30.2788 9.24366 30.1547 9.15053C30.1078 9.11578 30.0609 9.08103 30.0126 9.04628C29.923 8.98096 29.8333 8.91702 29.7437 8.85308C29.6968 8.81972 29.6513 8.78775 29.6044 8.75439C29.4789 8.66682 29.352 8.58203 29.2237 8.49724C29.1782 8.46805 29.1327 8.43886 29.0858 8.40828C28.9934 8.3499 28.9024 8.29152 28.8086 8.23314C28.7534 8.19839 28.6969 8.16364 28.6403 8.13029C28.5438 8.07191 28.4459 8.01353 28.3466 7.95654C28.2942 7.92596 28.2417 7.89538 28.1893 7.86619C28.068 7.79669 27.9452 7.72997 27.8225 7.66325C27.7632 7.63128 27.7025 7.59931 27.6432 7.56873C27.5563 7.52286 27.468 7.47838 27.3797 7.4339L27.1977 7.34216C27.0639 7.27683 26.9301 7.21289 26.7963 7.15035C26.7384 7.12394 26.6791 7.09753 26.6212 7.07112C26.5302 7.03081 26.4405 6.9905 26.3481 6.95019C26.2805 6.921 26.2129 6.8932 26.1454 6.86401C26.053 6.82509 25.9592 6.78756 25.8654 6.75003C25.7909 6.72084 25.7178 6.69165 25.6433 6.66246C25.5206 6.6152 25.3978 6.56933 25.2737 6.52485C25.2048 6.49983 25.1344 6.4762 25.0655 6.45118C24.9772 6.4206 24.8889 6.39002 24.7993 6.36083C24.7289 6.3372 24.66 6.31496 24.5896 6.29272C24.449 6.24824 24.3069 6.20516 24.1635 6.16346V6.16068C24.1662 6.13149 24.1704 6.1023 24.1731 6.07172H24.1704C24.5938 1.60014 20.2893 -1.06168 16.2317 0.40475C13.8099 1.25542 12.159 3.53361 12.1866 6.11342C12.17 6.30384 12.1921 6.48454 12.199 6.6708C11.5356 6.92795 10.8887 7.21984 10.2626 7.54788C10.2598 7.54788 10.2557 7.55066 10.2529 7.55344C9.84055 7.76889 9.43782 7.99963 9.04475 8.24426C9.0351 8.24982 9.02544 8.25677 9.01579 8.26233C8.62961 8.50419 8.25171 8.75856 7.88347 9.02682C7.85451 9.04767 7.82554 9.06991 7.7952 9.09076C7.4504 9.34374 7.11388 9.61062 6.78701 9.88723C6.76908 9.90252 6.75253 9.91641 6.7346 9.9317C6.39532 10.2208 6.06569 10.5224 5.7471 10.8352C5.73055 10.8505 5.714 10.8672 5.69883 10.8825C5.53332 11.0465 5.37058 11.2119 5.21059 11.3815L5.19818 11.394C5.07543 11.501 4.9582 11.6136 4.86579 11.7484C4.82718 11.8054 4.78028 11.8541 4.73615 11.9055C4.59134 12.0709 4.45066 12.2377 4.31136 12.4073C4.30033 12.4198 4.29067 12.4323 4.27964 12.4462C4.14999 12.6074 4.01897 12.7673 3.89622 12.9327C3.88105 12.9535 3.8645 12.973 3.84933 12.9938C3.71969 13.1662 3.59142 13.3413 3.46729 13.5193C3.40385 13.6096 3.34592 13.7027 3.26455 13.7834C3.19145 13.857 3.14318 13.9488 3.10319 14.0447C3.08801 14.0822 3.06595 14.1128 3.04526 14.1447C2.92803 14.3254 2.81493 14.5089 2.7046 14.6938C2.68391 14.7271 2.6646 14.7605 2.64529 14.7939C2.42738 15.1636 2.2205 15.5417 2.02741 15.9267C2.00811 15.9656 1.9888 16.0032 1.96949 16.0421C1.87432 16.2353 1.78054 16.4285 1.69227 16.6259C1.69089 16.63 1.68951 16.6342 1.68675 16.637C1.62055 16.7857 1.55297 16.9317 1.49229 17.0832C1.45781 17.1694 1.42195 17.2541 1.38747 17.3403C1.30747 17.5377 1.23024 17.7365 1.15714 17.9366C1.15163 17.9533 1.14611 17.9686 1.14059 17.9853C1.07301 18.1757 1.00681 18.3675 0.943369 18.5593C0.929577 18.601 0.915785 18.6427 0.901993 18.6844C0.83717 18.886 0.776486 19.0889 0.71856 19.2946C0.710284 19.3252 0.702009 19.3572 0.692355 19.3878C0.641324 19.5726 0.593053 19.7575 0.54754 19.9438C0.536506 19.9855 0.526852 20.0286 0.515818 20.0703C0.466167 20.2774 0.420654 20.4859 0.379278 20.6944C0.371003 20.7374 0.362728 20.7819 0.354453 20.825C0.317214 21.014 0.284114 21.2031 0.252393 21.3921C0.246876 21.4255 0.241359 21.4588 0.235842 21.4922C0.202741 21.7049 0.172399 21.9189 0.146194 22.1344C0.135161 22.2261 0.125507 22.3192 0.113094 22.411C0.0924059 22.5653 0.0813724 22.7196 0.0689597 22.8752C0.0675805 22.9003 0.0648217 22.9253 0.0620633 22.9503C0.0441338 23.1685 0.031722 23.3895 0.0220676 23.6091C0.0193092 23.6606 0.0179296 23.7134 0.0151712 23.7648C0.00689605 23.9886 0.00137919 24.2124 0 24.4376V24.4529C0 24.6072 0.00137903 24.7614 0.00413741 24.9157C0.00413741 24.9699 0.00827512 25.0242 0.00965431 25.0784C0.0124127 25.1826 0.0165505 25.2869 0.0206881 25.3911C0.0234465 25.4551 0.0275843 25.519 0.0317219 25.5829C0.0372387 25.6761 0.0427548 25.7706 0.0482716 25.8637C0.0524091 25.9304 0.0593055 25.9985 0.0648223 26.0653C0.0717182 26.1556 0.0799931 26.2446 0.0882683 26.3335C0.0951643 26.4016 0.10206 26.4697 0.108956 26.5378L0.137919 26.8006C0.146195 26.8687 0.15447 26.9368 0.164124 27.0063C0.175158 27.0925 0.18757 27.1786 0.199983 27.2648C0.209637 27.3329 0.220671 27.401 0.230325 27.4691C0.244117 27.5553 0.257909 27.6401 0.271701 27.7249C0.282735 27.793 0.295148 27.8611 0.307561 27.9278C0.322732 28.014 0.339282 28.0988 0.355832 28.1836C0.368245 28.2503 0.382037 28.3156 0.394449 28.3824C0.412379 28.4699 0.431687 28.5575 0.450996 28.6437C0.464788 28.7062 0.47858 28.7702 0.492372 28.8327C0.514439 28.9258 0.536506 29.0176 0.559952 29.1107C0.573744 29.1663 0.587536 29.2233 0.601328 29.2789C0.631671 29.397 0.663392 29.5152 0.696493 29.6333C0.707527 29.675 0.719939 29.7167 0.730973 29.7598C0.768211 29.8905 0.806828 30.0225 0.846825 30.1518C0.864754 30.2088 0.884063 30.2658 0.901993 30.3228C0.929576 30.4103 0.95716 30.4979 0.986123 30.5841C1.00819 30.648 1.03026 30.712 1.05232 30.7759C1.07991 30.8551 1.10611 30.933 1.13508 31.0122C1.1599 31.0789 1.18473 31.1456 1.20955 31.211C1.23714 31.286 1.26472 31.3597 1.29368 31.4334C1.31989 31.5015 1.34747 31.5682 1.37368 31.6363C1.40264 31.7072 1.4316 31.7795 1.46057 31.8504C1.48953 31.9185 1.51849 31.988 1.54746 32.0561C1.5778 32.1256 1.60676 32.1937 1.6371 32.2632C1.66745 32.3313 1.69917 32.4008 1.72951 32.4689C1.75985 32.5356 1.79157 32.6023 1.82329 32.6691C1.85639 32.7386 1.88812 32.8067 1.9226 32.8762C1.95432 32.9415 1.98604 33.0054 2.01914 33.0708C2.05362 33.1403 2.0881 33.2084 2.12396 33.2779C2.15568 33.3404 2.19016 33.403 2.22326 33.4655C2.2605 33.535 2.29636 33.6045 2.33497 33.674C2.3667 33.7324 2.3998 33.7908 2.4329 33.8478C2.47289 33.9201 2.51289 33.9923 2.55427 34.0632C2.58047 34.1091 2.60805 34.1536 2.63426 34.1981C2.74459 34.3871 2.85907 34.5734 2.9763 34.7582C2.98457 34.7721 2.99423 34.786 3.0025 34.7999C3.05491 34.8805 3.10732 34.9612 3.16111 35.0418C3.18869 35.0835 3.21628 35.1266 3.24524 35.1683C3.29627 35.2447 3.34868 35.3198 3.40109 35.3948C3.43281 35.4407 3.46453 35.4866 3.49625 35.5324C3.54866 35.6061 3.60107 35.6798 3.65486 35.7521C3.68796 35.7979 3.72106 35.8424 3.75416 35.8869C3.80795 35.9606 3.86312 36.0328 3.91829 36.1051C3.95139 36.1496 3.98587 36.1927 4.01897 36.2372C4.07552 36.3094 4.13206 36.3817 4.18999 36.4526C4.22309 36.4943 4.25757 36.536 4.29067 36.5777C4.34722 36.6472 4.40514 36.7167 4.46169 36.7848C4.58168 36.928 4.70305 37.0684 4.82718 37.2074C4.82856 37.2088 4.82994 37.2115 4.83131 37.2129C4.94855 37.345 5.06716 37.4742 5.18853 37.6021C5.20232 37.6174 5.21749 37.6327 5.23128 37.648C5.86571 38.318 6.54841 38.9421 7.27387 39.5134C7.278 39.5161 7.28214 39.5203 7.28628 39.5231C7.4173 39.6259 7.5497 39.7274 7.68349 39.8261C7.74831 39.8748 7.81313 39.922 7.87795 39.9693C7.9014 39.986 7.92485 40.004 7.94967 40.0207C8.04346 40.0874 8.13862 40.1541 8.2324 40.2209C8.25447 40.2361 8.27654 40.2514 8.29861 40.2667C8.39653 40.3334 8.49583 40.4002 8.59513 40.4655C8.61168 40.4766 8.62961 40.4877 8.64754 40.4989C8.75236 40.567 8.85856 40.6351 8.96476 40.7018C8.97165 40.706 8.97993 40.7115 8.98682 40.7157C9.81986 41.2342 10.6956 41.6887 11.6073 42.0737C11.61 42.0737 11.6128 42.0765 11.6156 42.0779C11.7397 42.1307 11.8652 42.1807 11.9907 42.2308C12.0004 42.2349 12.0114 42.2391 12.021 42.2433C12.1438 42.2919 12.2665 42.3392 12.3907 42.3851C12.4031 42.3892 12.4155 42.3948 12.4293 42.399C12.552 42.4448 12.6762 42.4879 12.8003 42.531C12.8127 42.5352 12.8251 42.5393 12.8362 42.5435C12.963 42.5866 13.0899 42.6283 13.2182 42.67C13.2251 42.6728 13.232 42.6742 13.2389 42.677C14.3326 43.0231 15.469 43.2719 16.6372 43.4137L17.3792 47.9506C17.4909 48.5483 18.0109 49 18.637 49C19.2632 49 19.7818 48.5483 19.8949 47.9506L20.1017 46.6871L20.6272 43.4734C29.9906 42.6186 37.4617 34.8138 37.8161 25.2062C37.8244 24.9727 37.8285 24.7406 37.8285 24.5085C37.8285 24.4334 37.8258 24.3584 37.8258 24.2819H37.834V24.2833ZM27.2115 20.3816C29.6458 25.3981 27.2667 31.3555 22.2891 33.3696L24.1469 22.0134C24.3014 21.0724 25.1082 20.3816 26.0557 20.3816H27.2115ZM18.6246 1.42222C19.848 1.31658 21.092 1.7433 21.965 2.62317C22.8174 3.44743 23.2256 4.66922 23.1553 5.84654C23.1525 5.86044 23.1484 5.8799 23.1429 5.90075C22.9953 5.86739 22.8463 5.83542 22.6988 5.80484C22.6739 5.79928 22.6491 5.79372 22.6243 5.78955C22.4864 5.76175 22.3484 5.73673 22.2092 5.71171C22.1678 5.70476 22.1264 5.69642 22.0836 5.68947C21.9568 5.66723 21.8285 5.64777 21.7002 5.62831C21.6437 5.61997 21.5871 5.61163 21.5306 5.60329C21.4134 5.58661 21.2961 5.57132 21.1789 5.55742C21.1086 5.54908 21.0368 5.54074 20.9651 5.53379C20.8589 5.52267 20.7527 5.51016 20.6451 5.50043C20.5583 5.49209 20.47 5.48653 20.3831 5.47958C20.2893 5.47263 20.1969 5.46429 20.1017 5.45873C19.9914 5.45178 19.8797 5.44761 19.768 5.44205C19.6949 5.43927 19.6218 5.4351 19.5487 5.43232C19.368 5.42676 19.1873 5.42259 19.0053 5.42259H18.968C18.8039 5.42259 18.6398 5.42398 18.4771 5.42815C18.4274 5.42815 18.3778 5.43232 18.3281 5.43371C18.2067 5.43788 18.0854 5.44205 17.964 5.44761C17.9102 5.45039 17.8578 5.45456 17.804 5.45734C17.6854 5.46429 17.5682 5.47263 17.4496 5.48097C17.3985 5.48514 17.3489 5.48931 17.2978 5.49348C17.1765 5.5046 17.0551 5.51572 16.9351 5.52823C16.8896 5.5324 16.8441 5.53796 16.7986 5.54352C16.6717 5.55742 16.5448 5.5741 16.4179 5.59078C16.3793 5.59634 16.3421 5.60051 16.3034 5.60607C16.1683 5.62553 16.0331 5.64638 15.8993 5.66723C15.8704 5.6714 15.8414 5.67696 15.8125 5.68113C15.6676 5.70615 15.5228 5.73256 15.378 5.76036C15.3601 5.76453 15.3408 5.76731 15.3228 5.77148C15.1601 5.80345 14.9987 5.83681 14.8387 5.87295C14.7679 5.8887 14.7679 5.8887 14.8387 5.87295C14.8194 5.73951 14.8043 5.59773 14.7974 5.46846C14.6925 3.26812 16.4772 1.54315 18.6274 1.42083H18.6246V1.42222ZM20.0879 38.7211C19.968 39.4522 18.9253 39.4522 18.8053 38.7211L18.4771 36.7125C19.1239 36.7501 19.7749 36.7362 20.4245 36.6694L20.0879 38.7211ZM20.6065 33.8742C19.7238 34.0452 18.8646 34.0952 18.0412 34.0424L15.68 19.6157C15.6276 19.2974 15.3546 19.0639 15.0346 19.0639H9.04613C8.85442 19.0639 8.67926 19.1723 8.58686 19.3419C7.28904 21.7285 6.88769 24.5974 7.44765 27.2759C8.46411 31.8823 11.6721 34.9459 15.458 36.1538L16.3655 41.7012C15.5366 41.5566 14.7298 41.3426 13.9492 41.066C13.9395 41.0632 13.9312 41.059 13.9216 41.0562C13.8181 41.0201 13.7161 40.9812 13.614 40.9423C13.6016 40.9381 13.5906 40.9325 13.5782 40.9284C13.4775 40.8894 13.3754 40.8491 13.2761 40.8088C13.2665 40.8047 13.2554 40.8005 13.2458 40.7963C13.1423 40.7532 13.0403 40.7101 12.9382 40.6657L12.6651 40.5433C12.1148 40.2973 11.5714 40.0276 11.0722 39.6899C11.0611 39.6829 11.0501 39.676 11.0377 39.669C10.9467 39.6134 10.8556 39.5551 10.766 39.4981C10.7522 39.4897 10.7384 39.48 10.7246 39.4717C10.6391 39.4161 10.5536 39.3591 10.4695 39.3021C10.4529 39.291 10.435 39.2784 10.4184 39.2673C10.3357 39.2103 10.2529 39.1533 10.1716 39.095C10.1536 39.0825 10.1371 39.07 10.1191 39.0574C10.0364 38.9991 9.95502 38.9393 9.87365 38.8781C9.85985 38.867 9.84468 38.8559 9.83089 38.8462C9.74676 38.7822 9.66263 38.7183 9.5785 38.653C9.57436 38.6488 9.56884 38.646 9.56471 38.6418C9.11233 38.2874 8.67788 37.9079 8.26275 37.5048C8.2462 37.4881 8.22827 37.4715 8.21172 37.4548C8.14552 37.3895 8.07931 37.3227 8.01311 37.2574C7.98967 37.2338 7.9676 37.2115 7.94415 37.1879C7.88209 37.124 7.82003 37.06 7.75934 36.9947C7.73452 36.9683 7.70831 36.9405 7.68349 36.9141C7.62418 36.8501 7.56625 36.7862 7.50695 36.7223C7.48074 36.6931 7.45454 36.6639 7.42833 36.6347C7.37041 36.5708 7.31386 36.5054 7.25732 36.4415C7.23111 36.4123 7.20629 36.3817 7.18146 36.3525C7.12491 36.2858 7.06837 36.2205 7.0132 36.1524C6.99113 36.1246 6.96906 36.0968 6.94562 36.0704C6.88769 35.9995 6.82977 35.9286 6.77322 35.8563C6.76081 35.8396 6.74839 35.8229 6.7346 35.8077C6.53876 35.5588 6.34981 35.3031 6.16637 35.0418C6.14706 35.014 6.12776 34.9876 6.10983 34.9612C6.06431 34.8944 6.0188 34.8263 5.97329 34.7596C5.94708 34.7193 5.9195 34.6804 5.89329 34.6401C5.85192 34.5761 5.81054 34.5122 5.76917 34.4482C5.7402 34.4038 5.71124 34.3579 5.68366 34.3134C5.64504 34.2509 5.60504 34.1883 5.5678 34.1244C5.53884 34.0757 5.50988 34.0285 5.48091 33.9798C5.44368 33.9173 5.40644 33.8561 5.37058 33.7936C5.34162 33.7435 5.31265 33.6921 5.28369 33.6421C5.24783 33.5795 5.21335 33.5183 5.17887 33.4558C5.14991 33.4044 5.12232 33.3516 5.09336 33.2987C5.06026 33.2362 5.02716 33.175 4.99406 33.1125C4.9651 33.0583 4.93751 33.0027 4.90993 32.9485C4.87821 32.8873 4.84649 32.8247 4.81614 32.7636C4.78718 32.7052 4.7596 32.6468 4.73201 32.5885C4.70305 32.5287 4.67409 32.4689 4.64512 32.4091C4.59961 32.3118 4.55548 32.2145 4.51134 32.1159C4.47962 32.045 4.44928 31.9741 4.41894 31.9032C4.38997 31.8351 4.35963 31.767 4.33067 31.6975C4.30722 31.6405 4.28377 31.5821 4.26033 31.5251C4.23412 31.4598 4.20654 31.3931 4.18033 31.3263C4.15689 31.268 4.13482 31.2082 4.11275 31.1498C4.08793 31.0831 4.0631 31.0178 4.03828 30.951C4.01621 30.8913 3.99552 30.8315 3.97346 30.7717C3.95001 30.705 3.92656 30.6383 3.90312 30.5702C3.88243 30.5104 3.86312 30.4507 3.84243 30.3909C3.82037 30.3228 3.79692 30.2533 3.77623 30.1852C3.75692 30.1254 3.73899 30.067 3.72106 30.0072C3.699 29.9364 3.67831 29.8655 3.65762 29.7946C3.64107 29.7362 3.62314 29.6778 3.60659 29.6194C3.5859 29.5444 3.56521 29.4693 3.54453 29.3943C3.52936 29.3387 3.51418 29.2831 3.50039 29.2275C3.47833 29.1427 3.45764 29.0565 3.43695 28.9717C3.42592 28.9245 3.4135 28.8786 3.40247 28.8313C3.37213 28.6993 3.34178 28.5672 3.31282 28.4352C3.30731 28.4102 3.30317 28.3837 3.29765 28.3587C3.27558 28.2503 3.25352 28.1405 3.23283 28.0321C3.22318 27.982 3.2149 27.932 3.20525 27.882C3.19007 27.7958 3.17352 27.7096 3.15973 27.6234C3.15008 27.5678 3.1418 27.5108 3.13353 27.4552C3.12111 27.3746 3.1087 27.2926 3.09629 27.2106C3.08801 27.1522 3.07974 27.0938 3.07284 27.0355C3.06181 26.9548 3.05215 26.8756 3.0425 26.795C3.0356 26.7352 3.02871 26.6755 3.02181 26.6157C3.01354 26.5351 3.00388 26.4558 2.99699 26.3752C2.99147 26.3154 2.98595 26.2557 2.98044 26.1959C2.97354 26.1139 2.96664 26.0319 2.95975 25.9499C2.95561 25.8915 2.95009 25.8317 2.94734 25.7734C2.94182 25.6872 2.9363 25.6024 2.93217 25.5162C2.92941 25.4606 2.92527 25.405 2.92389 25.348C2.91975 25.2535 2.91699 25.1576 2.91424 25.0631C2.91424 25.0158 2.91148 24.9686 2.9101 24.9213C2.90734 24.7781 2.90458 24.635 2.90458 24.4918C2.90458 24.2916 2.90872 24.0929 2.91561 23.8941C2.91699 23.8441 2.91837 23.794 2.92113 23.7454C2.92803 23.5508 2.93768 23.3562 2.95147 23.1644V23.1546C2.96527 22.9586 2.98319 22.764 3.0025 22.5694C3.00802 22.5208 3.01216 22.4721 3.01767 22.4249C3.03836 22.2372 3.06043 22.0496 3.08663 21.8647C3.08663 21.8578 3.08801 21.8522 3.08939 21.8453C3.1156 21.6534 3.14732 21.463 3.17904 21.2726C3.18732 21.2253 3.19559 21.1795 3.20387 21.1336C3.23697 20.9515 3.27145 20.7694 3.30868 20.5887C3.31006 20.5818 3.31144 20.5748 3.31282 20.5665C3.35282 20.3788 3.39557 20.1926 3.44109 20.0077C3.45212 19.9632 3.46315 19.9201 3.47419 19.8757C3.51832 19.6977 3.56521 19.5212 3.61487 19.3461C3.61762 19.3377 3.619 19.3308 3.62176 19.3224C3.67417 19.139 3.72934 18.9583 3.78726 18.7776C3.79968 18.7373 3.81347 18.6956 3.82726 18.6552C3.88381 18.4829 3.94173 18.3105 4.00242 18.141C4.00518 18.134 4.00794 18.1257 4.01069 18.1187C4.07552 17.9408 4.1431 17.7643 4.21206 17.5877C4.23964 17.5168 4.2686 17.446 4.29757 17.3751C4.34998 17.2416 4.4079 17.111 4.46583 16.9803C4.46997 16.972 4.47272 16.965 4.47548 16.9567C4.55134 16.7829 4.63133 16.612 4.7127 16.4424C4.75408 16.3562 4.79683 16.27 4.83821 16.1825C4.88924 16.0727 4.94855 15.967 5.00509 15.8586C5.00785 15.853 5.01061 15.8475 5.01337 15.8405C5.10164 15.6723 5.19266 15.5069 5.28645 15.3429C5.303 15.3137 5.31955 15.2845 5.33748 15.2553C5.4285 15.0969 5.52091 14.9398 5.61746 14.7841C5.61883 14.7814 5.62159 14.7772 5.62297 14.7744C5.72227 14.6132 5.82571 14.4533 5.93053 14.2963C5.94432 14.2754 5.95949 14.2532 5.97329 14.2323C6.0781 14.0752 6.18568 13.921 6.29464 13.7667L6.29878 13.7611C6.40911 13.6068 6.52358 13.4539 6.63944 13.3038C6.65323 13.2857 6.66702 13.2691 6.68081 13.251C6.79804 13.1009 6.91666 12.9521 7.03802 12.8048C7.15939 12.6575 7.2849 12.5129 7.41178 12.3711C7.42696 12.3531 7.44351 12.3364 7.45868 12.3183C7.71107 12.0361 7.97312 11.7637 8.24206 11.501C8.25723 11.4871 8.27102 11.4718 8.28619 11.4579C8.55927 11.1938 8.83925 10.9408 9.1275 10.6976C9.14129 10.6865 9.15509 10.6753 9.16888 10.6628C9.45989 10.4196 9.75917 10.1861 10.0654 9.96367C10.0778 9.95533 10.0902 9.94561 10.1026 9.93727C10.4115 9.71487 10.7274 9.50359 11.0501 9.30482C11.0625 9.29787 11.0735 9.28953 11.086 9.28258C11.4101 9.08381 11.7425 8.89756 12.0804 8.72381C12.0928 8.71825 12.1052 8.7113 12.1162 8.70574C12.2845 8.61956 12.4527 8.53755 12.6238 8.45693C13.181 9.75101 14.1891 10.9367 15.2663 11.7568C16.1752 12.4448 17.2179 12.9466 18.2371 13.4067C18.8329 13.6694 19.5032 13.9418 20.0921 14.2142C22.5029 15.3401 24.8958 16.8872 26.4391 19.0709H23.8656C23.5456 19.0709 23.2725 19.3044 23.2201 19.6227L20.8975 33.8186C20.8038 33.8408 20.7086 33.8617 20.612 33.8811L20.6079 33.8742H20.6065ZM14.9946 33.3265C10.4157 31.3931 7.74003 25.9666 9.4985 20.7972C9.58264 20.5484 9.81434 20.3816 10.075 20.3816H11.2377C12.1838 20.3816 12.9906 21.071 13.1437 22.0121L14.9946 33.3265ZM34.9419 24.9213C34.9419 24.9686 34.9391 25.0172 34.9377 25.0645C34.935 25.1604 34.9322 25.2563 34.9281 25.3522C34.9253 25.4092 34.9226 25.4662 34.9184 25.5232C34.9143 25.6093 34.9088 25.6955 34.9032 25.7817C34.8991 25.8415 34.895 25.9012 34.8895 25.961C34.8826 26.043 34.877 26.125 34.8688 26.207C34.8633 26.2682 34.8564 26.3307 34.8508 26.3919C34.8426 26.4711 34.8343 26.5504 34.826 26.6296C34.8191 26.6921 34.8122 26.7533 34.8039 26.8158C34.7943 26.8937 34.7846 26.9715 34.7736 27.0494C34.7653 27.1119 34.7571 27.1745 34.7474 27.2356C34.7364 27.3121 34.724 27.3899 34.7129 27.4664C34.7033 27.5275 34.6936 27.5901 34.6826 27.6512C34.6702 27.7277 34.6564 27.8055 34.6426 27.882C34.6315 27.9431 34.6205 28.0029 34.6095 28.0627C34.5943 28.1405 34.5791 28.2183 34.5626 28.2948C34.5502 28.3532 34.5391 28.4129 34.5267 28.4713C34.5102 28.5505 34.4922 28.6298 34.4743 28.7076C34.4619 28.7632 34.4495 28.8202 34.4357 28.8758C34.415 28.9592 34.3943 29.0426 34.3736 29.126C34.3612 29.176 34.3488 29.2261 34.3364 29.2761C34.3088 29.3845 34.2785 29.4916 34.2481 29.5972C34.2412 29.6222 34.2343 29.6472 34.2274 29.6723C34.1902 29.8029 34.1516 29.9322 34.1116 30.0615C34.0964 30.1101 34.0799 30.1574 34.0647 30.206C34.0385 30.2866 34.0137 30.3686 33.9861 30.4493C33.9682 30.5049 33.9475 30.5591 33.9295 30.6147C33.9047 30.687 33.8799 30.7606 33.8537 30.8329C33.833 30.8913 33.8109 30.9483 33.7902 31.0066C33.764 31.0748 33.7392 31.1443 33.713 31.2124C33.6909 31.2707 33.6675 31.3305 33.644 31.3889C33.6178 31.4556 33.5916 31.5223 33.564 31.5877C33.5392 31.6474 33.5144 31.7058 33.4896 31.7642C33.462 31.8281 33.4344 31.8935 33.4068 31.9574C33.3806 32.0172 33.3544 32.0755 33.3282 32.1353C33.3006 32.1979 33.2717 32.2604 33.2427 32.323C33.2151 32.3827 33.1875 32.4411 33.1599 32.4995C33.131 32.5607 33.1006 32.6218 33.0703 32.683C33.0413 32.7413 33.0124 32.7997 32.9834 32.8581C32.9531 32.9179 32.9213 32.979 32.891 33.0388C32.8607 33.0972 32.8303 33.1556 32.8 33.2126C32.7683 33.2723 32.7365 33.3307 32.7034 33.3891C32.6717 33.4461 32.6414 33.5045 32.6083 33.5614C32.5752 33.6198 32.5421 33.6768 32.509 33.7338C32.4759 33.7908 32.4441 33.8478 32.411 33.9048C32.3779 33.9618 32.3421 34.0174 32.309 34.0743C32.2373 34.1925 32.1642 34.3106 32.0897 34.4274C32.0607 34.4719 32.0331 34.5164 32.0042 34.5608C31.9642 34.6206 31.9242 34.6804 31.8842 34.7401C31.8511 34.7888 31.8194 34.8374 31.7863 34.8861C31.7463 34.9459 31.7049 35.0042 31.6635 35.0626C31.6304 35.1099 31.5959 35.1585 31.5628 35.2058C31.5215 35.2642 31.4787 35.3212 31.436 35.3795C31.4015 35.4268 31.367 35.4741 31.3325 35.5199C31.2898 35.5769 31.2456 35.6339 31.2029 35.6909C31.167 35.7368 31.1325 35.7826 31.0967 35.8285C31.0525 35.8855 31.007 35.9411 30.9615 35.9967C30.9257 36.0412 30.8898 36.0843 30.8539 36.1287C30.807 36.1843 30.7615 36.2399 30.7146 36.2955C30.6788 36.3386 30.6429 36.3803 30.6057 36.4234C30.5574 36.479 30.5091 36.5346 30.4609 36.5888C30.425 36.6291 30.3878 36.6708 30.3519 36.7111C30.3023 36.7667 30.2526 36.821 30.2016 36.8766C30.1657 36.9155 30.1299 36.953 30.094 36.9905C30.0416 37.0461 29.9892 37.1017 29.9354 37.1559L29.832 37.2602C29.7768 37.3172 29.7202 37.3728 29.6637 37.4284C29.6333 37.4576 29.603 37.4868 29.5713 37.5173C29.5092 37.5771 29.4485 37.6369 29.3865 37.6953C29.3699 37.7105 29.352 37.7258 29.3354 37.7411C29.0927 37.9677 28.8403 38.1845 28.5852 38.3986C28.5727 38.4097 28.5603 38.4194 28.5479 38.4306C28.4776 38.4875 28.4072 38.5431 28.3369 38.6001C28.3079 38.6224 28.279 38.646 28.2514 38.6682C28.1852 38.7197 28.1176 38.7711 28.05 38.8225C28.0169 38.8476 27.9838 38.874 27.9494 38.8976C27.8832 38.9462 27.8156 38.9949 27.7494 39.0435C27.7135 39.0686 27.679 39.095 27.6432 39.12C27.577 39.1672 27.5094 39.2131 27.4418 39.2604C27.406 39.2854 27.3687 39.3104 27.3329 39.334C27.2653 39.3799 27.1963 39.4244 27.1287 39.4689C27.0915 39.4925 27.0543 39.5161 27.0184 39.5398C26.9494 39.5842 26.8791 39.6273 26.8101 39.6704C26.7743 39.6927 26.737 39.7149 26.6998 39.7371C26.6281 39.7802 26.5577 39.8233 26.4846 39.865C26.4502 39.8859 26.4143 39.9053 26.3785 39.9262C26.304 39.9693 26.2295 40.011 26.1536 40.0527C26.1219 40.0693 26.0916 40.086 26.0599 40.1027C25.9799 40.1458 25.8999 40.1889 25.8199 40.2306C25.7964 40.2431 25.773 40.2542 25.7509 40.2653C25.2448 40.5239 24.7248 40.756 24.1924 40.9575C24.1704 40.9659 24.1497 40.9742 24.1276 40.9826C24.0393 41.0159 23.9511 41.0465 23.8628 41.0785C23.8325 41.0896 23.8021 41.1007 23.7704 41.1104C23.6863 41.1396 23.6008 41.1674 23.5152 41.1952C23.4808 41.2064 23.4449 41.2189 23.4104 41.23C23.3277 41.2564 23.2435 41.2814 23.1594 41.3064C23.1222 41.3176 23.0849 41.3287 23.0477 41.3398C22.9649 41.3634 22.8808 41.3871 22.7967 41.4093C22.7581 41.419 22.7195 41.4301 22.6808 41.4399C22.5967 41.4621 22.5126 41.483 22.4284 41.5038C22.3898 41.5135 22.3526 41.5219 22.314 41.5316C22.2285 41.5511 22.1429 41.5705 22.0574 41.59C22.0202 41.5983 21.983 41.6053 21.9457 41.6136C21.8575 41.6317 21.7692 41.6498 21.6809 41.6664C21.6478 41.6734 21.6133 41.679 21.5802 41.6845C21.4878 41.7012 21.3954 41.7179 21.3016 41.7332C21.2768 41.7373 21.2506 41.7401 21.2258 41.7443C21.1237 41.7596 21.0217 41.7762 20.9182 41.7901L21.7926 36.4498C24.4393 35.866 26.9563 34.3732 28.8555 31.8684C31.4153 28.4699 31.938 24.1749 30.6912 20.3816H32.8882C33.8578 20.3816 34.6784 21.1058 34.8026 22.0746C34.826 22.2595 34.8467 22.4457 34.8646 22.632C34.8701 22.6834 34.8743 22.7349 34.8784 22.7877C34.8895 22.9183 34.9005 23.0504 34.9101 23.1824C34.9143 23.245 34.9184 23.3061 34.9226 23.3687C34.9295 23.498 34.9363 23.6286 34.9405 23.7593C34.9432 23.8163 34.946 23.8732 34.9474 23.9302C34.9529 24.1151 34.9557 24.3014 34.9557 24.4876C34.9557 24.6322 34.9543 24.7767 34.9501 24.9213H34.9419Z" fill="#014D40"/>
<path d="M54.7674 27.5233C51.5014 26.314 48.1238 25.0644 48.1238 22.5486C48.1238 20.9529 50.0464 20.1175 51.9455 20.1175C55.8762 20.1175 57.8292 21.5714 59.4111 25.6733L59.4484 25.7706L60.0718 25.6566V20.8097L59.9228 20.5623L59.8925 20.5456C58.0885 19.574 55.6087 19.0806 52.5193 19.0806C48.2259 19.0806 45.6606 21.5436 45.6606 23.9233C45.6606 27.1272 49.3651 28.4824 52.9496 29.7932C56.0445 30.9246 58.967 31.9935 58.967 34.0729C58.967 36.1524 56.7134 36.9877 54.4805 36.9877C50.7291 36.9877 48.4714 35.4212 46.4274 31.4L46.3819 31.311L45.7888 31.4514H45.7847L45.6592 31.4806V36.0926L45.7874 36.3094L45.924 36.5416L45.9543 36.5582C47.4576 37.395 50.8753 38.0261 53.9054 38.0261C56.9355 38.0261 61.3378 36.5666 61.3378 32.5481C61.3378 29.9586 58.1464 28.7771 54.766 27.5261V27.5233H54.7674Z" fill="#014D40"/>
<path d="M80.7919 32.4566C79.843 34.5971 77.6653 37.0963 74.649 37.0963H70.8465C69.648 37.0963 68.9984 36.8781 68.9984 35.723V28.9038H73.8449C74.8972 28.9038 76.4033 30.0505 76.4033 30.8511V30.9776H77.097V25.9028H76.4033V26.0293C76.4033 26.8299 74.8972 27.9767 73.8449 27.9767H68.9984V21.3909C68.9984 20.5666 69.3487 20.0176 71.0617 20.0176H74.369C77.2612 20.0176 78.9865 22.5418 79.9244 24.6588L79.9699 24.763L80.6043 24.5587L79.4568 19.3212L79.1713 19.0933H63.8857V19.7855H64.0112C64.9394 19.7855 66.0442 20.0649 66.0442 21.3937V35.7244C66.0442 37.0533 64.9381 37.3326 64.0112 37.3326H63.8857V38.0249H79.4458L79.7216 37.8275L81.4732 32.5914L80.8374 32.3482L80.7891 32.458H80.7919V32.4566Z" fill="#014D40"/>
<path d="M103.712 19.784H103.837V19.0918H98.4545V19.784H98.58C99.231 19.784 99.7109 19.9355 99.8971 20.1996C100.042 20.4039 100.041 20.7097 99.8971 21.1045L94.641 33.8548L89.0966 21.4311C88.8622 20.9182 88.8305 20.504 89.0056 20.233C89.1904 19.948 89.6276 19.784 90.2028 19.784H90.3283V19.0918H82.751V19.784H82.8765C83.8419 19.784 85.1204 20.2316 85.8045 21.4784L92.9915 37.851L93.2563 38.0234H93.8259L94.0935 37.8455L100.96 21.2324C101.584 19.9717 102.951 19.784 103.709 19.784H103.712Z" fill="#014D40"/>
<path d="M116.604 35.5576L109.355 19.2642L109.09 19.0933H108.551L108.279 19.2795L102.03 35.7911C101.404 37.1825 99.9018 37.3326 99.2866 37.3326H99.1611V38.0249H104.544V37.3326H104.419C103.766 37.3326 103.275 37.1756 103.07 36.9004C102.921 36.7016 102.902 36.4139 103.012 36.0552L104.38 32.4482H111.862L113.396 35.787C113.567 36.2721 113.561 36.6488 113.378 36.9045C113.179 37.1811 112.764 37.3326 112.21 37.3326H112.084V38.0249H119.661V37.3326H119.536C118.58 37.3326 117.24 36.867 116.608 35.5576H116.604ZM104.732 31.5211L107.784 23.4189L111.453 31.5211H104.732Z" fill="#014D40"/>
<path d="M150.671 19.0278C145.179 19.0278 141.342 22.9337 141.342 28.5256C141.342 34.1175 145.179 38.0234 150.671 38.0234C156.163 38.0234 160 34.1175 160 28.5256C160 22.9337 156.164 19.0278 150.671 19.0278ZM151.517 36.8822C147.367 36.8822 144.355 33.0667 144.355 27.8111C144.355 24.3251 145.304 20.169 149.822 20.169C153.955 20.169 156.954 23.9831 156.954 29.24C156.954 32.7261 156.011 36.8822 151.517 36.8822Z" fill="#014D40"/>
<path d="M131.75 29.5697H131.877C132.793 29.5697 133.885 29.8407 133.885 31.1334V35.466C132.858 35.9497 131.681 36.1749 130.19 36.1749C127.744 36.1749 125.657 35.0935 124.316 33.1308L124.304 33.1127C123.74 32.2815 123.33 31.3196 123.083 30.2494C122.485 28.0004 122.805 26.0877 123.181 24.8715C123.321 24.2877 123.589 23.6706 123.96 23.0826L123.998 23.0242C124.318 22.528 124.701 22.0651 125.079 21.7218C125.707 21.1519 127.105 20.1942 129.419 20.1942C129.884 20.1942 130.37 20.2345 130.855 20.311C131.216 20.3819 131.535 20.4639 131.825 20.5626C134.078 21.3979 135.424 23.6942 136.026 24.9855C136.124 25.2065 136.22 25.4331 136.314 25.6707L136.353 25.7667L136.724 25.7013V20.7057L136.718 20.696L136.558 20.4222C134.72 19.5312 132.247 19.0767 129.193 19.0767C128.029 19.0767 126.94 19.249 125.953 19.5896L125.862 19.6201L125.647 19.7008C121.997 21.0185 119.817 24.3294 119.817 28.5675C119.817 34.1344 123.636 38.0221 129.103 38.0221C131.116 38.0221 132.968 37.487 134.451 36.4807C134.587 36.4042 134.684 36.3973 134.765 36.3973C135.231 36.3973 135.744 36.9491 136.074 37.8039L136.111 37.9012L136.733 37.7872V31.1306C136.733 29.8157 137.238 29.5669 138.169 29.5669H138.294V28.8858H131.747V29.5669L131.75 29.5697Z" fill="#014D40"/>
</svg>
